<svg xmlns="http://www.w3.org/2000/svg" xmlns:xlink="http://www.w3.org/1999/xlink" width="500" zoomAndPan="magnify" viewBox="0 0 375 374.999991" height="500" preserveAspectRatio="xMidYMid meet" version="1.0"><defs><clipPath id="id1"><path d="M 49 39.101562 L 320 39.101562 L 320 335 L 49 335 Z M 49 39.101562 " clip-rule="nonzero"/></clipPath></defs><rect x="-37.5" width="450" fill="#ffffff" y="-37.499999" height="449.999989" fill-opacity="1"/><rect x="-37.5" width="450" fill="#ffffff" y="-37.499999" height="449.999989" fill-opacity="1"/><rect x="-37.5" width="450" fill="#ffffff" y="-37.499999" height="449.999989" fill-opacity="1"/><path fill="#100f0d" d="M 166.742188 61.746094 L 174.492188 61.746094 L 174.492188 84.984375 L 166.742188 84.984375 L 166.742188 61.746094 " fill-opacity="1" fill-rule="nonzero"/><path fill="#100f0d" d="M 214.339844 105.476562 L 229.824219 89.988281 L 235.296875 95.464844 L 219.8125 110.953125 L 214.339844 105.476562 " fill-opacity="1" fill-rule="nonzero"/><path fill="#100f0d" d="M 105.9375 95.464844 L 111.410156 89.988281 L 126.902344 105.476562 L 121.425781 110.953125 L 105.9375 95.464844 " fill-opacity="1" fill-rule="nonzero"/><path fill="#100f0d" d="M 181.265625 188.136719 C 179.558594 188.574219 178.363281 190.121094 178.363281 191.886719 L 178.363281 208.898438 L 162.878906 208.898438 L 162.878906 191.886719 C 162.878906 190.121094 161.675781 188.574219 159.96875 188.132812 C 141.167969 183.289062 128.03125 166.351562 128.03125 146.9375 C 128.03125 123.449219 147.140625 104.347656 170.621094 104.347656 C 194.101562 104.347656 213.203125 123.449219 213.203125 146.9375 C 213.203125 166.351562 200.066406 183.289062 181.265625 188.136719 Z M 170.621094 96.601562 C 142.867188 96.601562 120.289062 119.183594 120.289062 146.9375 C 120.289062 168.867188 134.46875 188.132812 155.128906 194.796875 L 155.128906 212.769531 C 155.128906 214.914062 156.863281 216.644531 159 216.644531 L 182.234375 216.644531 C 184.371094 216.644531 186.105469 214.914062 186.105469 212.769531 L 186.105469 194.796875 C 206.765625 188.125 220.945312 168.867188 220.945312 146.9375 C 220.945312 119.183594 198.367188 96.601562 170.621094 96.601562 " fill-opacity="1" fill-rule="nonzero"/><path fill="#100f0d" d="M 155.128906 224.394531 L 186.105469 224.394531 L 186.105469 232.136719 L 155.128906 232.136719 L 155.128906 224.394531 " fill-opacity="1" fill-rule="nonzero"/><path fill="#100f0d" d="M 155.128906 239.882812 L 186.105469 239.882812 L 186.105469 247.625 L 155.128906 247.625 L 155.128906 239.882812 " fill-opacity="1" fill-rule="nonzero"/><path fill="#100f0d" d="M 166.742188 146.9375 L 174.492188 146.9375 L 174.492188 177.921875 L 166.742188 177.921875 L 166.742188 146.9375 " fill-opacity="1" fill-rule="nonzero"/><path fill="#100f0d" d="M 236.433594 150.808594 L 263.53125 150.808594 L 263.53125 158.554688 L 236.433594 158.554688 L 236.433594 150.808594 " fill-opacity="1" fill-rule="nonzero"/><path fill="#100f0d" d="M 77.703125 150.808594 L 104.804688 150.808594 L 104.804688 158.554688 L 77.703125 158.554688 L 77.703125 150.808594 " fill-opacity="1" fill-rule="nonzero"/><path fill="#100f0d" d="M 174.492188 131.449219 L 182.234375 131.449219 L 182.234375 139.195312 L 174.492188 139.195312 L 174.492188 131.449219 " fill-opacity="1" fill-rule="nonzero"/><path fill="#100f0d" d="M 159 131.449219 L 166.742188 131.449219 L 166.742188 139.195312 L 159 139.195312 L 159 131.449219 " fill-opacity="1" fill-rule="nonzero"/><path fill="#100f0d" d="M 143.515625 131.449219 L 151.257812 131.449219 L 151.257812 139.195312 L 143.515625 139.195312 L 143.515625 131.449219 " fill-opacity="1" fill-rule="nonzero"/><path fill="#100f0d" d="M 189.976562 131.449219 L 197.71875 131.449219 L 197.71875 139.195312 L 189.976562 139.195312 L 189.976562 131.449219 " fill-opacity="1" fill-rule="nonzero"/><g clip-path="url(#id1)"><path fill="#100f0d" d="M 313.828125 201.015625 C 303.140625 189.515625 294.945312 175.875 289.796875 161.042969 C 290.542969 94.824219 237.507812 40.546875 171.296875 39.773438 C 105.132812 39.03125 50.84375 92.082031 50.101562 158.300781 C 49.890625 160.683594 49.773438 163.039062 49.773438 165.386719 C 49.773438 204.085938 77.796875 237.890625 94.382812 269.617188 C 98.464844 280.460938 100.933594 291.867188 101.738281 303.425781 C 103.9375 322.464844 121.121094 336.101562 140.15625 333.898438 C 140.242188 333.898438 140.300781 333.898438 140.390625 333.867188 C 159.125 333.867188 174.308594 318.679688 174.339844 299.9375 L 174.339844 252.488281 L 165.464844 252.488281 L 165.464844 299.96875 C 165.167969 314.296875 153.3125 325.679688 138.988281 325.378906 C 137.832031 325.351562 136.671875 325.234375 135.503906 325.050781 C 122.644531 325.050781 111.890625 315.339844 110.550781 302.5625 C 109.691406 290.050781 106.949219 277.75 102.453125 266.074219 C 95.925781 251.746094 82.265625 232.175781 73.472656 216.773438 C 43.308594 162.914062 62.515625 94.792969 116.359375 64.648438 C 130.890625 56.519531 147 51.75 163.621094 50.648438 C 225.144531 47.460938 277.585938 94.765625 280.773438 156.308594 C 280.859375 158.058594 280.917969 159.785156 280.917969 161.542969 C 285.773438 178.527344 294.742188 194.042969 307.070312 206.703125 C 309.367188 209.03125 310.640625 212.128906 310.699219 215.402344 C 310.582031 216 310.285156 217.816406 306.914062 219.785156 C 299.238281 224.074219 291.257812 227.851562 283.070312 231.101562 C 281.128906 231.847656 280 233.785156 280.269531 235.804688 C 282.113281 249.777344 282.289062 263.925781 280.714844 277.925781 C 279.433594 284.566406 264.488281 289.039062 243.425781 289.039062 C 233.542969 288.175781 224.816406 295.503906 223.953125 305.394531 C 223.859375 306.226562 223.859375 307.0625 223.898438 307.894531 L 223.898438 329.371094 C 224.042969 331.8125 226.128906 333.695312 228.570312 333.570312 C 230.800781 333.453125 232.621094 331.636719 232.738281 329.371094 L 232.738281 307.953125 C 232.382812 302.738281 236.3125 298.238281 241.496094 297.855469 C 242.152344 297.824219 242.777344 297.855469 243.398438 297.910156 C 297.03125 297.679688 292.359375 278.792969 289.414062 238.101562 C 304.539062 231.335938 331.820312 222.878906 313.828125 201.015625 " fill-opacity="1" fill-rule="nonzero"/></g></svg>