<svg xmlns="http://www.w3.org/2000/svg" xmlns:xlink="http://www.w3.org/1999/xlink" width="500" zoomAndPan="magnify" viewBox="0 0 375 374.999991" height="500" preserveAspectRatio="xMidYMid meet" version="1.0"><defs><clipPath id="id1"><path d="M 53.4375 37.5 L 321.9375 37.5 L 321.9375 337.5 L 53.4375 337.5 Z M 53.4375 37.5 " clip-rule="nonzero"/></clipPath></defs><rect x="-37.5" width="450" fill="#ffffff" y="-37.499999" height="449.999989" fill-opacity="1"/><rect x="-37.5" width="450" fill="#ffffff" y="-37.499999" height="449.999989" fill-opacity="1"/><rect x="-37.5" width="450" fill="#ffffff" y="-37.499999" height="449.999989" fill-opacity="1"/><path fill="#100f0d" d="M 174.773438 196.667969 L 174.550781 196.660156 C 171.679688 196.660156 170.375 198.929688 170.375 201.039062 C 170.375 203.273438 171.824219 205.636719 174.503906 205.636719 C 174.503906 205.636719 174.503906 205.636719 174.507812 205.636719 C 174.828125 205.636719 175.160156 205.601562 175.441406 205.539062 C 178.1875 205.125 179.273438 202.789062 179.128906 200.804688 C 178.976562 198.8125 177.546875 196.667969 174.773438 196.667969 " fill-opacity="1" fill-rule="nonzero"/><path fill="#100f0d" d="M 106.992188 148.917969 L 106.769531 148.910156 C 103.898438 148.910156 102.59375 151.179688 102.59375 153.289062 C 102.59375 155.515625 104.042969 157.878906 106.722656 157.878906 C 107.046875 157.878906 107.378906 157.84375 107.660156 157.78125 C 110.40625 157.367188 111.5 155.039062 111.347656 153.054688 C 111.195312 151.0625 109.765625 148.917969 106.992188 148.917969 " fill-opacity="1" fill-rule="nonzero"/><path fill="#100f0d" d="M 147.890625 128.808594 C 148.214844 128.808594 148.546875 128.773438 148.832031 128.714844 C 151.578125 128.292969 152.660156 125.960938 152.507812 123.976562 C 152.363281 121.984375 150.9375 119.839844 148.160156 119.839844 L 147.941406 119.835938 C 145.066406 119.835938 143.761719 122.109375 143.761719 124.21875 C 143.761719 126.445312 145.214844 128.808594 147.890625 128.808594 " fill-opacity="1" fill-rule="nonzero"/><path fill="#100f0d" d="M 168.648438 227.765625 C 161.015625 225.34375 153.78125 224.117188 146.9375 224.117188 L 146.730469 224.117188 C 141.988281 224.152344 137.414062 224.820312 133.148438 226.097656 C 132 226.433594 131.054688 227.199219 130.488281 228.253906 C 129.917969 229.308594 129.796875 230.523438 130.144531 231.671875 C 130.722656 233.5625 132.441406 234.828125 134.417969 234.828125 C 134.859375 234.828125 135.300781 234.769531 135.722656 234.636719 C 139.214844 233.589844 143.03125 233.058594 147.054688 233.058594 C 152.828125 233.058594 159.179688 234.148438 165.941406 236.292969 C 166.382812 236.429688 166.832031 236.5 167.289062 236.5 C 169.242188 236.5 170.953125 235.25 171.546875 233.402344 C 171.921875 232.257812 171.816406 231.046875 171.273438 229.976562 C 170.726562 228.914062 169.792969 228.128906 168.648438 227.765625 " fill-opacity="1" fill-rule="nonzero"/><path fill="#100f0d" d="M 207.683594 248.421875 C 200.6875 246.976562 194.355469 242.480469 187.652344 237.71875 C 186.570312 236.953125 185.480469 236.179688 184.382812 235.414062 C 183.636719 234.898438 182.757812 234.625 181.667969 234.625 C 181.652344 234.625 181.648438 234.625 181.640625 234.625 C 180.261719 234.691406 178.960938 235.402344 178.183594 236.527344 C 177.492188 237.503906 177.222656 238.691406 177.429688 239.867188 C 177.636719 241.046875 178.292969 242.074219 179.273438 242.765625 C 180.40625 243.550781 181.542969 244.371094 182.710938 245.203125 C 189.273438 249.917969 196.714844 255.269531 205.898438 257.164062 C 206.195312 257.226562 206.5 257.261719 206.800781 257.261719 C 208.90625 257.261719 210.742188 255.765625 211.171875 253.703125 C 211.414062 252.53125 211.183594 251.332031 210.523438 250.339844 C 209.867188 249.339844 208.851562 248.664062 207.683594 248.421875 " fill-opacity="1" fill-rule="nonzero"/><path fill="#100f0d" d="M 275.976562 175.734375 C 276.292969 175.734375 276.625 175.699219 276.910156 175.636719 C 279.65625 175.214844 280.742188 172.894531 280.59375 170.902344 C 280.445312 168.910156 279.015625 166.765625 276.238281 166.765625 L 276.019531 166.757812 C 273.148438 166.757812 271.84375 169.03125 271.84375 171.140625 C 271.84375 173.367188 273.292969 175.734375 275.976562 175.734375 " fill-opacity="1" fill-rule="nonzero"/><path fill="#100f0d" d="M 256.269531 201.796875 C 255.675781 201.796875 255.082031 201.921875 254.535156 202.148438 L 255.253906 198.414062 C 255.730469 196 254.144531 193.648438 251.699219 193.167969 C 251.457031 193.132812 251.214844 193.105469 250.96875 193.105469 L 249.964844 193.109375 L 249.964844 193.199219 C 248.242188 193.558594 246.839844 194.925781 246.480469 196.710938 L 244.617188 206.375 C 240.847656 207.582031 237.050781 208.34375 233.296875 208.664062 L 235.261719 206.105469 C 236.773438 204.160156 236.421875 201.355469 234.476562 199.839844 C 233.703125 199.246094 232.742188 198.921875 231.75 198.914062 C 230.367188 198.914062 229.042969 199.570312 228.207031 200.660156 L 222.367188 208.199219 C 216.238281 207.0625 210.894531 204.472656 206.457031 200.480469 C 205.636719 199.742188 204.574219 199.335938 203.46875 199.335938 C 203.34375 199.335938 203.21875 199.34375 203.109375 199.351562 C 201.96875 199.433594 200.914062 199.949219 200.125 200.804688 C 198.484375 202.625 198.628906 205.449219 200.453125 207.105469 C 208.203125 214.074219 218.234375 217.753906 229.464844 217.753906 C 231.363281 217.753906 233.316406 217.652344 235.261719 217.445312 L 240.773438 224.082031 C 241.621094 225.109375 242.878906 225.703125 244.214844 225.703125 C 245.257812 225.703125 246.273438 225.335938 247.074219 224.675781 C 247.992188 223.917969 248.566406 222.84375 248.675781 221.648438 C 248.785156 220.464844 248.425781 219.300781 247.667969 218.382812 L 245.273438 215.492188 C 249.808594 214.210938 254.21875 212.445312 258.382812 210.234375 C 259.445312 209.667969 260.21875 208.730469 260.5625 207.582031 C 260.914062 206.4375 260.789062 205.222656 260.230469 204.183594 C 259.453125 202.707031 257.941406 201.796875 256.269531 201.796875 " fill-opacity="1" fill-rule="nonzero"/><path fill="#100f0d" d="M 202.410156 156.15625 L 194.816406 165.632812 L 181.335938 156.921875 L 188.894531 147.476562 Z M 146.152344 159.265625 L 153.765625 149.765625 L 168.164062 159.066406 L 160.550781 168.5625 Z M 173.785156 152.046875 L 159.386719 142.75 L 166.894531 133.367188 L 181.328125 142.632812 Z M 189.191406 172.652344 L 181.578125 182.15625 L 168.097656 173.445312 L 175.710938 163.9375 Z M 170.296875 114.835938 L 151.839844 137.875 L 141.5 131.195312 C 140.78125 130.734375 139.945312 130.484375 139.089844 130.484375 C 138.972656 130.484375 138.847656 130.492188 138.730469 130.503906 C 137.363281 130.609375 136.09375 131.359375 135.34375 132.511719 C 134.679688 133.511719 134.457031 134.710938 134.707031 135.890625 C 134.957031 137.054688 135.652344 138.0625 136.652344 138.707031 L 146.222656 144.886719 L 138.613281 154.382812 L 124.164062 145.050781 C 123.449219 144.589844 122.613281 144.347656 121.757812 144.347656 C 121.632812 144.347656 121.507812 144.355469 121.398438 144.359375 C 120.003906 144.472656 118.761719 145.203125 118 146.375 C 117.339844 147.378906 117.117188 148.574219 117.367188 149.746094 C 117.613281 150.917969 118.304688 151.917969 119.3125 152.5625 L 132.988281 161.402344 L 114.777344 184.121094 C 114.023438 185.054688 113.679688 186.226562 113.8125 187.410156 C 113.941406 188.597656 114.527344 189.664062 115.460938 190.410156 C 116.253906 191.050781 117.25 191.402344 118.269531 191.402344 C 119.636719 191.402344 120.914062 190.789062 121.761719 189.71875 L 140.53125 166.28125 L 154.933594 175.582031 L 142.542969 191.058594 C 141.789062 191.988281 141.445312 193.152344 141.574219 194.34375 C 141.707031 195.539062 142.292969 196.597656 143.230469 197.351562 C 144.019531 197.976562 145.007812 198.324219 146.015625 198.324219 C 147.375 198.324219 148.652344 197.710938 149.507812 196.65625 L 162.476562 180.460938 L 176.359375 189.429688 C 176 191.0625 176.59375 192.800781 177.941406 193.871094 C 178.726562 194.496094 179.714844 194.839844 180.722656 194.839844 C 182.089844 194.839844 183.359375 194.234375 184.214844 193.171875 L 196.867188 177.367188 C 197.253906 177.476562 197.65625 177.53125 198.0625 177.53125 C 199.582031 177.53125 200.988281 176.773438 201.8125 175.5 C 202.722656 174.113281 202.777344 172.375 202.011719 170.949219 L 209.976562 161.015625 L 213.007812 162.960938 C 213.734375 163.421875 214.5625 163.664062 215.417969 163.664062 C 216.949219 163.664062 218.359375 162.898438 219.179688 161.609375 C 220.503906 159.535156 219.902344 156.769531 217.824219 155.445312 L 215.589844 154.003906 L 225.859375 141.195312 C 227.378906 139.273438 227.054688 136.460938 225.144531 134.9375 C 224.382812 134.332031 223.429688 133.980469 222.339844 133.953125 C 220.980469 133.953125 219.71875 134.566406 218.863281 135.632812 L 208.03125 149.152344 L 194.507812 140.472656 L 205.035156 127.339844 C 206.558594 125.425781 206.25 122.621094 204.34375 121.082031 C 203.578125 120.460938 202.617188 120.109375 201.515625 120.089844 C 200.160156 120.089844 198.890625 120.695312 198.035156 121.773438 L 186.949219 135.613281 L 172.515625 126.347656 L 177.265625 120.414062 C 178.804688 118.496094 178.492188 115.683594 176.582031 114.140625 C 175.8125 113.527344 174.847656 113.175781 173.8125 113.15625 C 172.433594 113.15625 171.15625 113.769531 170.296875 114.835938 " fill-opacity="1" fill-rule="nonzero"/><path fill="#100f0d" d="M 203.054688 215.769531 L 202.832031 215.761719 C 199.960938 215.761719 198.648438 218.039062 198.648438 220.140625 C 198.648438 222.367188 200.097656 224.730469 202.785156 224.730469 C 203.109375 224.730469 203.441406 224.695312 203.722656 224.632812 C 206.46875 224.222656 207.554688 221.890625 207.402344 219.90625 C 207.25 217.914062 205.828125 215.769531 203.054688 215.769531 " fill-opacity="1" fill-rule="nonzero"/><path fill="#100f0d" d="M 252.582031 172.941406 C 252.574219 173.066406 252.574219 173.175781 252.582031 173.285156 C 252.722656 175.980469 251.402344 177.960938 250.277344 179.144531 C 248.332031 181.1875 245.507812 182.40625 242.726562 182.40625 C 240.738281 182.40625 238.921875 181.773438 237.417969 180.496094 C 234.695312 178.628906 233.460938 175.214844 234.191406 171.597656 C 234.828125 168.472656 237.15625 164.800781 241.640625 163.855469 C 241.847656 163.84375 242.054688 163.84375 242.257812 163.84375 C 245.3125 163.84375 248.1875 164.984375 250.140625 166.976562 C 251.761719 168.640625 252.632812 170.761719 252.582031 172.941406 Z M 232.046875 187.492188 C 235.082031 189.996094 238.804688 191.320312 242.800781 191.320312 C 242.800781 191.320312 242.800781 191.320312 242.808594 191.320312 C 247.902344 191.320312 253.078125 189.097656 256.65625 185.382812 C 259.933594 181.964844 261.640625 177.546875 261.453125 172.996094 C 261.507812 168.246094 259.652344 163.726562 256.226562 160.269531 C 252.761719 156.769531 248.019531 154.761719 243.222656 154.761719 L 242.726562 154.769531 C 241.253906 154.8125 239.824219 155.03125 238.507812 155.410156 C 231.832031 156.921875 226.792969 162.296875 225.363281 169.445312 C 223.921875 176.628906 226.503906 183.558594 232.046875 187.492188 " fill-opacity="1" fill-rule="nonzero"/><path fill="#100f0d" d="M 182.089844 105.972656 C 206.988281 106.332031 230.90625 111.480469 251.265625 120.847656 C 272.082031 130.402344 286.144531 149.015625 287.085938 168.28125 L 287.113281 168.480469 C 287.214844 169.5625 287.285156 170.695312 287.3125 172.066406 L 287.285156 172.066406 L 287.285156 175.0625 C 286.585938 201.011719 267.425781 225.515625 242.558594 232.132812 L 242.53125 232.148438 C 237.238281 233.652344 231.679688 234.417969 226.007812 234.417969 C 210.207031 234.417969 195.183594 228.515625 184.738281 218.160156 C 174.75 210.109375 161.917969 206.03125 146.601562 206.03125 C 142.96875 206.03125 139.179688 206.265625 135.445312 206.71875 L 134.554688 206.726562 C 125.324219 206.726562 116.207031 204.863281 108.882812 201.472656 C 100.148438 197.441406 94.089844 191.464844 90.871094 183.75 C 82.3125 162.1875 94.496094 137.695312 110.960938 124.625 C 127.8125 110.453125 151.265625 107.621094 171.929688 106.082031 L 172.09375 106.070312 C 174.417969 105.984375 176.753906 105.945312 179.085938 105.945312 C 180.085938 105.945312 181.089844 105.953125 182.089844 105.972656 Z M 225.308594 268.988281 C 214.5625 268.988281 204.289062 266.277344 195.613281 261.167969 C 193.003906 259.523438 190.46875 257.507812 187.785156 255.371094 C 181.992188 250.761719 175.421875 245.535156 166.832031 243.472656 C 159.890625 241.027344 153.191406 240.710938 148.132812 240.710938 C 145.378906 240.710938 142.644531 240.820312 140 240.921875 C 137.378906 241.027344 134.90625 241.125 132.4375 241.125 C 128.34375 241.125 125.082031 240.835938 122.117188 240.207031 C 107.9375 238.132812 91.464844 228.289062 88.808594 211.613281 C 88.195312 206.4375 88.027344 201.136719 88 196.34375 C 92.308594 201.859375 98.050781 206.296875 105.121094 209.566406 C 113.714844 213.542969 123.917969 215.644531 134.628906 215.644531 L 135.976562 215.625 C 139.59375 215.183594 143.148438 214.957031 146.546875 214.957031 C 159.8125 214.957031 170.683594 218.292969 178.78125 224.792969 C 190.667969 236.609375 207.804688 243.378906 225.785156 243.378906 C 232.363281 243.378906 238.847656 242.476562 245.03125 240.710938 C 262.523438 236.0625 278.082031 223.65625 287.339844 207.152344 C 286.960938 223.109375 281.691406 237.457031 272.277344 247.898438 C 261.273438 261.109375 243.71875 268.988281 225.308594 268.988281 Z M 296.210938 200.335938 C 296.222656 191.890625 296.230469 183.363281 296.230469 174.859375 C 296.273438 172.292969 296.195312 169.976562 295.996094 167.820312 C 294.648438 140.453125 273.933594 121.421875 255 112.734375 C 233.164062 102.683594 208.652344 97.398438 182.144531 97.023438 C 181.183594 97.003906 180.21875 97.003906 179.257812 97.003906 C 176.675781 97.003906 174.039062 97.050781 171.382812 97.15625 C 149.257812 98.808594 124.082031 101.90625 105.257812 117.738281 C 88.027344 131.464844 77.886719 152.714844 79.214844 172.167969 L 79.082031 172.175781 L 79.101562 173.160156 C 79.207031 177.519531 79.152344 182.027344 79.089844 186.390625 C 78.972656 194.992188 78.847656 203.886719 79.964844 212.992188 C 83.328125 234.121094 103.4375 246.464844 120.644531 248.996094 C 124.683594 249.84375 129.046875 250.230469 134.363281 250.230469 C 137.011719 250.230469 139.636719 250.140625 142.175781 250.050781 C 144.640625 249.960938 147.070312 249.878906 149.457031 249.878906 C 153.640625 249.878906 159.109375 250.113281 164.363281 251.996094 C 170.609375 253.46875 175.828125 257.53125 181.355469 261.839844 C 184.375 264.1875 187.5 266.621094 190.980469 268.800781 L 192.511719 269.75 L 192.511719 269.667969 C 202.371094 275.128906 213.726562 277.996094 225.480469 277.996094 C 246.300781 277.996094 266.3125 268.929688 279 253.765625 C 291.324219 240.074219 297.433594 221.078125 296.210938 200.335938 " fill-opacity="1" fill-rule="nonzero"/><path fill="#100f0d" d="M 265.421875 188.78125 L 265.203125 188.773438 C 262.328125 188.773438 261.023438 191.042969 261.023438 193.152344 C 261.023438 195.378906 262.476562 197.742188 265.160156 197.75 C 265.476562 197.75 265.816406 197.710938 266.09375 197.652344 C 268.839844 197.234375 269.921875 194.902344 269.777344 192.917969 C 269.625 190.925781 268.199219 188.78125 265.421875 188.78125 " fill-opacity="1" fill-rule="nonzero"/><path fill="#100f0d" d="M 240.625 135.453125 C 240.945312 135.453125 241.28125 135.421875 241.566406 135.359375 C 244.304688 134.945312 245.398438 132.609375 245.246094 130.621094 C 245.09375 128.628906 243.671875 126.488281 240.890625 126.488281 L 240.667969 126.488281 C 237.804688 126.488281 236.492188 128.753906 236.492188 130.863281 C 236.492188 133.082031 237.941406 135.453125 240.625 135.453125 " fill-opacity="1" fill-rule="nonzero"/><path fill="#100f0d" d="M 265.996094 152.480469 C 266.3125 152.480469 266.644531 152.445312 266.925781 152.386719 C 269.675781 151.964844 270.765625 149.640625 270.613281 147.648438 C 270.460938 145.65625 269.03125 143.511719 266.257812 143.511719 L 266.035156 143.507812 C 263.164062 143.507812 261.859375 145.78125 261.859375 147.890625 C 261.859375 150.117188 263.304688 152.480469 265.996094 152.480469 " fill-opacity="1" fill-rule="nonzero"/><g clip-path="url(#id1)"><path fill="#100f0d" d="M 313.261719 257.859375 L 187.6875 328.441406 L 62.113281 257.859375 L 62.113281 117.140625 L 187.6875 46.558594 L 313.261719 117.140625 Z M 319.453125 110.941406 L 190.351562 38.480469 L 189.730469 38.023438 C 189.289062 37.679688 188.550781 37.5 187.6875 37.5 C 186.824219 37.5 186.085938 37.679688 185.644531 38.023438 L 185.023438 38.480469 L 55.921875 110.941406 C 54.5 111.679688 53.699219 113.023438 53.699219 114.601562 L 53.699219 260.398438 C 53.699219 261.984375 54.5 263.320312 55.921875 264.058594 L 185.023438 336.519531 L 185.644531 336.984375 C 186.085938 337.320312 186.824219 337.5 187.6875 337.5 C 188.550781 337.5 189.289062 337.320312 189.730469 336.984375 L 190.351562 336.519531 L 319.453125 264.058594 C 320.875 263.320312 321.675781 261.984375 321.675781 260.398438 L 321.675781 114.601562 C 321.675781 113.023438 320.875 111.679688 319.453125 110.941406 " fill-opacity="1" fill-rule="nonzero"/></g></svg>