<svg xmlns="http://www.w3.org/2000/svg" xmlns:xlink="http://www.w3.org/1999/xlink" width="500" zoomAndPan="magnify" viewBox="0 0 375 374.999991" height="500" preserveAspectRatio="xMidYMid meet" version="1.0"><defs><clipPath id="id1"><path d="M 37.5 48.75 L 337 48.75 L 337 326.25 L 37.5 326.25 Z M 37.5 48.75 " clip-rule="nonzero"/></clipPath></defs><rect x="-37.5" width="450" fill="#ffffff" y="-37.499999" height="449.999989" fill-opacity="1"/><rect x="-37.5" width="450" fill="#ffffff" y="-37.499999" height="449.999989" fill-opacity="1"/><rect x="-37.5" width="450" fill="#ffffff" y="-37.499999" height="449.999989" fill-opacity="1"/><path fill="#131110" d="M 203.660156 154.535156 C 202.648438 152.816406 201.289062 151.476562 199.589844 150.507812 C 197.890625 149.535156 195.546875 148.511719 192.554688 147.417969 C 189.828125 146.414062 188.058594 145.578125 187.226562 144.898438 C 186.402344 144.21875 185.988281 143.25 185.988281 141.992188 C 185.988281 140.746094 186.414062 139.6875 187.277344 138.816406 C 188.132812 137.945312 189.273438 137.507812 190.6875 137.507812 C 193.523438 137.507812 195.617188 139.453125 196.972656 143.355469 L 203.902344 140.511719 C 202.664062 136.25 200.300781 133.390625 196.824219 131.941406 C 196.039062 131.613281 195.191406 131.359375 194.289062 131.179688 L 194.289062 124.59375 L 186.605469 124.59375 L 186.605469 131.214844 C 183.558594 131.863281 181.265625 133.21875 179.753906 135.277344 C 178.015625 137.640625 177.152344 140.285156 177.152344 143.230469 C 177.152344 145.476562 177.636719 147.441406 178.601562 149.132812 C 179.570312 150.820312 180.839844 152.136719 182.394531 153.074219 C 183.957031 154.007812 186.128906 154.960938 188.894531 155.914062 C 191.96875 157.015625 193.945312 157.914062 194.839844 158.617188 C 195.734375 159.332031 196.183594 160.367188 196.183594 161.738281 C 196.183594 163.078125 195.734375 164.203125 194.839844 165.148438 C 193.945312 166.085938 192.554688 166.546875 190.660156 166.546875 C 186.605469 166.546875 184.207031 164.359375 183.5 159.980469 L 175.710938 162.007812 C 177.175781 168.492188 180.8125 172.253906 186.605469 173.289062 L 186.605469 179.9375 L 194.289062 179.9375 L 194.289062 173.265625 C 194.332031 173.257812 194.367188 173.257812 194.40625 173.246094 C 194.460938 173.242188 194.511719 173.234375 194.558594 173.226562 C 197.742188 172.632812 200.238281 171.335938 202.042969 169.3125 C 204.136719 166.96875 205.179688 164.042969 205.179688 160.535156 C 205.179688 158.242188 204.675781 156.242188 203.660156 154.535156 " fill-opacity="1" fill-rule="nonzero"/><path fill="#252122" d="M 190.449219 179.1875 C 175.578125 179.1875 163.519531 167.136719 163.519531 152.265625 C 163.519531 137.394531 175.578125 125.339844 190.449219 125.339844 C 205.320312 125.339844 217.371094 137.394531 217.371094 152.265625 C 217.371094 167.136719 205.320312 179.1875 190.449219 179.1875 Z M 190.449219 114.757812 C 169.734375 114.757812 152.941406 131.554688 152.941406 152.265625 C 152.941406 172.980469 169.734375 189.769531 190.449219 189.769531 C 211.160156 189.769531 227.949219 172.980469 227.949219 152.265625 C 227.949219 131.554688 211.160156 114.757812 190.449219 114.757812 " fill-opacity="1" fill-rule="nonzero"/><path fill="#231f20" d="M 93.148438 232.738281 C 92.585938 232.480469 92.078125 232.109375 91.632812 231.667969 C 92.078125 232.085938 92.585938 232.460938 93.148438 232.738281 " fill-opacity="1" fill-rule="nonzero"/><path fill="#231f20" d="M 268.1875 162.488281 C 261.183594 169.597656 254.207031 176.734375 247.160156 183.804688 C 232.878906 198.152344 218.5625 212.46875 204.25 226.785156 C 199.390625 231.636719 197.664062 231.636719 192.828125 226.761719 C 186.238281 220.121094 179.695312 213.449219 172.386719 206.035156 C 168.496094 210.230469 165.035156 214.171875 161.351562 217.890625 C 148.308594 231.046875 135.199219 244.121094 122.113281 257.230469 C 121.351562 257.992188 120.585938 258.753906 119.777344 259.464844 C 116.761719 262.109375 114.511719 262.109375 111.617188 259.273438 C 106.699219 254.449219 101.855469 249.542969 96.972656 244.675781 C 96.445312 244.15625 95.867188 243.699219 94.582031 242.578125 C 90.808594 246.605469 87.15625 250.660156 83.335938 254.546875 C 76.695312 261.308594 70.039062 268.0625 63.15625 274.570312 C 61.816406 275.839844 59.25 276.816406 57.535156 276.484375 C 53.496094 275.683594 52.625 271.066406 55.742188 267.871094 C 61.675781 261.777344 67.730469 255.792969 73.742188 249.78125 C 79.300781 244.222656 84.851562 238.660156 90.445312 233.132812 C 94.007812 229.621094 96.15625 229.5625 99.746094 233.144531 C 104.992188 238.378906 110.101562 243.746094 115.976562 249.789062 C 120.046875 245.433594 123.605469 241.425781 127.371094 237.632812 C 140.332031 224.554688 153.367188 211.542969 166.378906 198.515625 C 166.988281 197.90625 167.613281 197.3125 168.238281 196.726562 C 171.671875 193.527344 173.765625 193.457031 177.085938 196.71875 C 183.15625 202.679688 189.144531 208.71875 195.148438 214.742188 C 196.132812 215.730469 197.015625 216.820312 197.664062 217.542969 C 218.773438 196.417969 239.621094 175.546875 260.246094 154.902344 C 256.707031 155.300781 252.5 155.738281 248.292969 156.265625 C 244.234375 156.761719 240.195312 157.359375 236.140625 157.890625 C 232.875 158.320312 230.082031 156.417969 229.65625 153.511719 C 229.242188 150.683594 231.511719 148.203125 234.898438 147.777344 C 248.125 146.097656 261.351562 144.402344 274.585938 142.734375 C 278.878906 142.191406 281.578125 144.984375 281.027344 149.300781 C 279.367188 162.3125 277.71875 175.328125 276.074219 188.347656 C 275.578125 192.277344 273.191406 194.644531 270.199219 194.136719 C 267.066406 193.605469 265.503906 190.769531 266.019531 186.949219 C 267.089844 178.972656 268.054688 170.972656 269.058594 162.984375 C 268.773438 162.820312 268.480469 162.65625 268.1875 162.488281 " fill-opacity="1" fill-rule="nonzero"/><path fill="#231f20" d="M 239.929688 261.570312 C 239.929688 248.105469 239.941406 234.644531 239.917969 221.179688 C 239.917969 218.589844 240.675781 216.195312 243.304688 215.621094 C 244.914062 215.269531 247.207031 215.75 248.46875 216.753906 C 249.5625 217.625 250.054688 219.761719 250.089844 221.355469 C 250.253906 228.566406 250.160156 235.789062 250.160156 243 C 250.160156 262.171875 250.160156 281.34375 250.160156 300.511719 C 250.160156 301.371094 250.222656 302.242188 250.125 303.089844 C 249.785156 305.875 247.5 307.992188 244.960938 307.945312 C 242.445312 307.890625 240.082031 305.679688 239.976562 302.921875 C 239.839844 299.050781 239.929688 295.167969 239.929688 291.289062 C 239.929688 281.382812 239.929688 271.476562 239.929688 261.570312 " fill-opacity="1" fill-rule="nonzero"/><path fill="#231f20" d="M 219.253906 269.132812 C 219.25 258.472656 219.242188 247.804688 219.253906 237.144531 C 219.261719 233.15625 221.261719 230.585938 224.316406 230.5625 C 227.398438 230.53125 229.476562 233.09375 229.476562 237.050781 C 229.488281 258.476562 229.488281 279.910156 229.476562 301.339844 C 229.476562 305.328125 227.476562 307.898438 224.40625 307.945312 C 221.351562 307.992188 219.265625 305.398438 219.261719 301.441406 C 219.242188 290.667969 219.253906 279.898438 219.253906 269.132812 " fill-opacity="1" fill-rule="nonzero"/><path fill="#231f20" d="M 177.886719 271.507812 C 177.886719 261.8125 177.882812 252.121094 177.894531 242.425781 C 177.898438 238.246094 180 235.601562 183.167969 235.71875 C 186.195312 235.839844 188.113281 238.421875 188.113281 242.433594 C 188.121094 262.035156 188.121094 281.632812 188.113281 301.230469 C 188.113281 305.40625 186.011719 308.046875 182.839844 307.933594 C 179.792969 307.820312 177.894531 305.269531 177.886719 301.222656 C 177.875 291.320312 177.886719 281.414062 177.886719 271.507812 " fill-opacity="1" fill-rule="nonzero"/><path fill="#231f20" d="M 167.4375 274.417969 C 167.4375 283.355469 167.445312 292.296875 167.433594 301.230469 C 167.425781 305.433594 165.332031 308.066406 162.15625 307.9375 C 159.082031 307.820312 157.210938 305.3125 157.210938 301.230469 C 157.199219 283.355469 157.199219 265.476562 157.210938 247.601562 C 157.210938 243.570312 159.128906 241.011719 162.15625 240.898438 C 165.339844 240.789062 167.425781 243.421875 167.433594 247.601562 C 167.445312 256.542969 167.4375 265.476562 167.4375 274.417969 " fill-opacity="1" fill-rule="nonzero"/><path fill="#231f20" d="M 198.570312 277.003906 C 198.570312 268.816406 198.554688 260.636719 198.578125 252.449219 C 198.589844 248.546875 200.769531 245.953125 203.851562 246.0625 C 206.804688 246.167969 208.785156 248.671875 208.792969 252.449219 C 208.808594 268.816406 208.808594 285.191406 208.792969 301.558594 C 208.785156 305.464844 206.601562 308.054688 203.519531 307.9375 C 200.578125 307.832031 198.582031 305.300781 198.578125 301.558594 C 198.554688 293.371094 198.566406 285.191406 198.570312 277.003906 " fill-opacity="1" fill-rule="nonzero"/><path fill="#231f20" d="M 136.527344 287.34375 C 136.527344 282.496094 136.492188 277.648438 136.539062 272.804688 C 136.574219 269.179688 138.847656 266.625 141.8125 266.746094 C 144.703125 266.859375 146.730469 269.273438 146.742188 272.8125 C 146.777344 282.5 146.777344 292.195312 146.742188 301.886719 C 146.730469 305.515625 144.445312 308.058594 141.472656 307.945312 C 138.632812 307.832031 136.566406 305.339844 136.539062 301.875 C 136.496094 297.03125 136.527344 292.183594 136.527344 287.34375 " fill-opacity="1" fill-rule="nonzero"/><path fill="#231f20" d="M 105.394531 289.839844 C 105.394531 293.714844 105.410156 297.59375 105.386719 301.46875 C 105.363281 305.417969 103.28125 307.992188 100.199219 307.9375 C 97.261719 307.890625 95.183594 305.347656 95.167969 301.640625 C 95.144531 293.78125 95.136719 285.921875 95.171875 278.0625 C 95.191406 274.378906 97.363281 271.863281 100.359375 271.914062 C 103.347656 271.960938 105.351562 274.449219 105.386719 278.207031 C 105.417969 282.089844 105.394531 285.960938 105.394531 289.839844 " fill-opacity="1" fill-rule="nonzero"/><path fill="#231f20" d="M 84.710938 292.550781 C 84.710938 295.78125 84.769531 299.015625 84.699219 302.242188 C 84.621094 305.492188 82.507812 307.84375 79.714844 307.933594 C 76.851562 308.023438 74.53125 305.570312 74.5 302.160156 C 74.4375 295.703125 74.4375 289.242188 74.5 282.785156 C 74.535156 279.546875 76.71875 277.167969 79.484375 277.085938 C 82.371094 276.996094 84.585938 279.429688 84.699219 282.863281 C 84.75 284.476562 84.710938 286.097656 84.710938 287.710938 C 84.710938 289.324219 84.710938 290.9375 84.710938 292.550781 " fill-opacity="1" fill-rule="nonzero"/><path fill="#231f20" d="M 115.847656 292.59375 C 115.84375 289.359375 115.792969 286.132812 115.855469 282.902344 C 115.925781 279.488281 118.164062 277.039062 121.046875 277.085938 C 123.808594 277.132812 126.011719 279.507812 126.046875 282.746094 C 126.117188 289.3125 126.128906 295.878906 126.042969 302.445312 C 126 305.628906 123.632812 307.992188 120.867188 307.945312 C 118.113281 307.890625 115.9375 305.503906 115.867188 302.277344 C 115.792969 299.050781 115.847656 295.820312 115.847656 292.59375 " fill-opacity="1" fill-rule="nonzero"/><path fill="#231f20" d="M 64.003906 297.816406 C 64.011719 299.535156 64.125 301.265625 63.980469 302.980469 C 63.742188 305.804688 61.507812 307.914062 58.941406 307.9375 C 56.402344 307.960938 54.003906 305.839844 53.863281 303.042969 C 53.6875 299.5 53.6875 295.933594 53.859375 292.386719 C 53.992188 289.59375 56.34375 287.453125 58.886719 287.429688 C 61.417969 287.394531 63.730469 289.523438 63.976562 292.332031 C 64.132812 294.144531 64.003906 295.984375 64.003906 297.816406 " fill-opacity="1" fill-rule="nonzero"/><g clip-path="url(#id1)"><path fill="#231f20" d="M 335.957031 176.464844 C 334.597656 180.445312 332.195312 182.699219 328.371094 183.703125 C 327.347656 183.9375 326.230469 184.078125 325.191406 184.113281 L 294.882812 184.113281 L 294.882812 208.949219 C 294.894531 228.25 294.894531 247.53125 294.894531 263.886719 L 294.894531 281.179688 L 294.945312 281.179688 L 294.945312 314.324219 L 304.28125 314.324219 C 307.582031 314.324219 310.253906 316.996094 310.253906 320.300781 C 310.253906 323.621094 307.582031 326.300781 304.28125 326.300781 L 37.550781 326.300781 L 37.550781 314.324219 L 283.074219 314.324219 L 283.074219 172.277344 L 317.625 172.277344 L 322.925781 172.371094 L 313.167969 164.207031 L 299.023438 152.390625 C 287.109375 142.40625 275.191406 132.449219 263.28125 122.472656 L 251.070312 112.257812 C 231.746094 96.082031 211.597656 79.222656 191.554688 62.386719 C 190.355469 61.394531 189.898438 61.300781 189.851562 61.300781 C 189.851562 61.300781 189.414062 61.410156 188.25 62.433594 C 165.824219 81.835938 143.363281 101.257812 120.925781 120.660156 C 103.03125 136.132812 85.167969 151.554688 67.273438 167.019531 L 61.09375 172.324219 L 66.742188 172.277344 L 108.503906 172.277344 C 111.78125 172.277344 114.421875 174.921875 114.421875 178.195312 C 114.421875 181.453125 111.78125 184.09375 108.503906 184.09375 L 101.851562 184.09375 L 101.851562 220.402344 C 99.960938 219.519531 97.679688 218.84375 95.101562 218.84375 C 93.148438 218.84375 91.355469 219.222656 89.796875 219.800781 C 89.796875 217.035156 89.796875 214.988281 89.796875 214.988281 L 89.796875 184.09375 L 61.660156 184.09375 L 61.519531 184.113281 L 59.230469 184.113281 C 53.582031 184.035156 49.570312 181.359375 47.953125 176.640625 C 46.34375 171.886719 47.617188 168.296875 52.371094 164.207031 L 181.449219 52.785156 C 184.5 50.125 187.238281 48.851562 189.824219 48.851562 C 192.402344 48.851562 195.171875 50.113281 198.289062 52.691406 C 229.539062 78.738281 262.480469 106.292969 300.140625 137.78125 L 331.582031 164.066406 C 336.066406 167.839844 337.492188 171.886719 335.957031 176.464844 " fill-opacity="1" fill-rule="nonzero"/></g></svg>