<svg xmlns="http://www.w3.org/2000/svg" xmlns:xlink="http://www.w3.org/1999/xlink" width="500" zoomAndPan="magnify" viewBox="0 0 375 374.999991" height="500" preserveAspectRatio="xMidYMid meet" version="1.0"><defs><clipPath id="id1"><path d="M 31.292969 56.675781 L 344.042969 56.675781 L 344.042969 318.425781 L 31.292969 318.425781 Z M 31.292969 56.675781 " clip-rule="nonzero"/></clipPath></defs><rect x="-37.5" width="450" fill="#ffffff" y="-37.499999" height="449.999989" fill-opacity="1"/><rect x="-37.5" width="450" fill="#ffffff" y="-37.499999" height="449.999989" fill-opacity="1"/><rect x="-37.5" width="450" fill="#ffffff" y="-37.499999" height="449.999989" fill-opacity="1"/><path fill="#231f20" d="M 201.160156 176.640625 L 201.566406 176.640625 C 205.074219 176.722656 207.832031 179 207.832031 181.871094 C 207.820312 182.941406 208.167969 183.875 208.847656 184.582031 C 209.546875 185.261719 210.542969 185.664062 211.59375 185.664062 C 212.644531 185.664062 213.632812 185.261719 214.320312 184.582031 C 215 183.875 215.367188 182.964844 215.347656 181.871094 C 215.347656 176.371094 211.613281 171.625 205.847656 169.816406 L 205.167969 169.601562 L 205.167969 167.738281 C 205.191406 166.742188 204.800781 165.789062 204.097656 165.089844 C 203.378906 164.347656 202.390625 163.945312 201.355469 163.945312 C 199.273438 163.964844 197.621094 165.671875 197.660156 167.738281 L 197.660156 169.601562 L 196.976562 169.816406 C 191.292969 171.550781 187.484375 176.414062 187.484375 181.871094 C 187.484375 188.9375 193.730469 194.671875 201.414062 194.671875 C 205.421875 194.671875 207.832031 197.359375 207.832031 199.960938 C 207.832031 202.546875 205.421875 205.234375 201.414062 205.234375 C 197.40625 205.234375 194.992188 202.566406 194.992188 199.980469 C 195.011719 198.890625 194.660156 197.957031 193.984375 197.277344 C 193.28125 196.578125 192.289062 196.167969 191.238281 196.167969 C 190.1875 196.167969 189.191406 196.578125 188.511719 197.277344 C 187.832031 197.957031 187.460938 198.890625 187.484375 199.960938 C 187.484375 205.488281 191.214844 210.214844 196.976562 212.039062 L 197.660156 212.25 L 197.660156 214.136719 C 197.660156 216.199219 199.351562 217.894531 201.414062 217.894531 C 203.472656 217.894531 205.167969 216.199219 205.167969 214.136719 L 205.167969 212.25 L 205.871094 212.039062 C 211.53125 210.308594 215.347656 205.464844 215.347656 199.980469 C 215.347656 192.921875 209.101562 187.179688 201.414062 187.179688 C 197.40625 187.179688 194.992188 184.5 194.992188 181.894531 C 194.992188 179.019531 197.695312 176.703125 201.160156 176.640625 " fill-opacity="1" fill-rule="nonzero"/><path fill="#231f20" d="M 201.414062 223.753906 C 182.878906 223.753906 167.847656 208.730469 167.847656 190.207031 C 167.847656 171.675781 182.878906 156.652344 201.414062 156.652344 C 219.953125 156.652344 234.984375 171.675781 234.984375 190.207031 C 234.984375 208.730469 219.953125 223.753906 201.414062 223.753906 Z M 201.414062 148.863281 C 178.566406 148.863281 160.050781 167.375 160.050781 190.207031 C 160.050781 213.03125 178.566406 231.542969 201.414062 231.542969 C 224.257812 231.542969 242.78125 213.03125 242.78125 190.207031 C 242.78125 167.375 224.257812 148.863281 201.414062 148.863281 " fill-opacity="1" fill-rule="nonzero"/><g clip-path="url(#id1)"><path fill="#231f20" d="M 319.347656 186.269531 C 316.835938 187.476562 314.113281 188.332031 311.269531 188.738281 C 309.871094 188.949219 308.429688 189.066406 306.96875 189.066406 C 305.585938 189.066406 304.230469 188.949219 302.902344 188.738281 C 300.082031 188.332031 297.378906 187.476562 294.886719 186.25 C 285.304688 181.605469 278.5 171.742188 278.476562 160.660156 C 278.464844 153.050781 281.4375 145.859375 286.886719 140.390625 C 289.261719 138.019531 291.964844 136.113281 294.886719 134.691406 C 297.414062 133.492188 300.117188 132.65625 302.902344 132.242188 C 304.285156 132.03125 305.683594 131.933594 307.105469 131.933594 L 307.304688 131.957031 C 308.640625 131.957031 309.964844 132.070312 311.269531 132.285156 C 314.113281 132.710938 316.816406 133.585938 319.347656 134.816406 C 328.882812 139.519531 335.65625 149.417969 335.636719 160.523438 C 335.613281 171.859375 328.976562 181.660156 319.347656 186.269531 Z M 311.269531 262.289062 C 311.25 275.882812 300.179688 286.949219 286.597656 286.96875 L 237.742188 286.96875 C 239.644531 285.972656 241.546875 284.980469 243.445312 283.976562 L 253.742188 278.609375 L 286.597656 278.609375 C 295.585938 278.609375 302.902344 271.296875 302.902344 262.289062 L 302.902344 197.277344 C 304.167969 197.394531 305.449219 197.46875 306.753906 197.46875 L 306.859375 197.46875 C 308.355469 197.46875 309.828125 197.375 311.269531 197.203125 Z M 294.886719 256.714844 L 294.886719 262.289062 C 294.886719 266.859375 291.167969 270.574219 286.597656 270.574219 L 269.121094 270.574219 L 272.335938 268.894531 C 278.839844 265.492188 285.367188 262.09375 291.882812 258.640625 C 292.964844 258.066406 293.960938 257.414062 294.886719 256.714844 Z M 188.273438 303.511719 C 185.066406 305.183594 181.757812 306.878906 178.582031 308.667969 C 176.925781 309.589844 175.3125 310.035156 173.640625 310.035156 C 172.398438 310.035156 171.09375 309.765625 169.664062 309.28125 C 158.628906 305.546875 147.59375 301.859375 136.558594 298.167969 C 127.394531 295.089844 118.21875 292.035156 109.054688 288.9375 C 106.34375 288.019531 103.425781 287.160156 100.386719 287.160156 C 100.0625 287.160156 99.714844 287.160156 99.289062 287.203125 L 93.921875 287.203125 L 93.921875 230.652344 L 109.527344 230.652344 C 113.316406 230.652344 117.132812 230.632812 121.074219 230.589844 C 123.378906 230.589844 125.210938 231.46875 126.578125 232.222656 L 137.714844 238.382812 C 144.976562 242.394531 152.226562 246.414062 159.488281 250.445312 C 161.320312 251.507812 163.054688 251.996094 165.15625 251.996094 C 169.097656 251.933594 173.027344 251.933594 176.949219 251.933594 C 180.867188 251.933594 184.757812 251.933594 188.820312 251.953125 C 191.976562 251.953125 194.757812 252.996094 196.609375 254.871094 C 198.265625 256.523438 199.125 258.722656 199.125 261.195312 C 199.082031 266.570312 194.800781 270.324219 188.71875 270.324219 C 182.597656 270.34375 176.480469 270.34375 170.359375 270.34375 C 161.710938 270.34375 153.054688 270.34375 144.410156 270.300781 C 141.554688 270.300781 140.042969 271.222656 139.351562 273.359375 C 138.980469 274.5625 139.144531 275.726562 139.835938 276.667969 C 140.695312 277.847656 142.265625 278.539062 144.128906 278.558594 C 157.015625 278.582031 169.863281 278.582031 182.761719 278.582031 L 186.433594 278.582031 C 187.65625 278.582031 188.863281 278.582031 190.085938 278.558594 C 198.246094 278.355469 204.75 273.277344 206.714844 265.597656 C 207.386719 262.921875 208.929688 261.84375 211.058594 261.050781 C 225.664062 255.417969 240.269531 249.753906 254.875 244.109375 L 279.96875 234.382812 C 281.578125 233.773438 283.152344 233.464844 284.65625 233.464844 C 288.292969 233.464844 291.285156 235.363281 292.855469 238.664062 C 295.140625 243.476562 292.980469 248.773438 287.632812 251.550781 L 262.808594 264.535156 C 239.226562 276.867188 215.644531 289.203125 192.082031 301.558594 C 190.820312 302.207031 189.535156 302.859375 188.273438 303.511719 Z M 93.503906 218.164062 L 93.503906 94.011719 C 93.523438 80.417969 104.59375 69.347656 118.183594 69.335938 L 127.695312 69.335938 L 127.695312 77.695312 L 118.140625 77.695312 C 109.152344 77.695312 101.835938 85.007812 101.835938 94.011719 L 101.835938 222.429688 C 100.984375 222.433594 100.140625 222.429688 99.289062 222.433594 L 93.921875 222.433594 L 93.921875 220.296875 C 93.921875 219.539062 93.761719 218.828125 93.503906 218.164062 Z M 93.035156 217.234375 C 93.105469 217.351562 93.171875 217.476562 93.234375 217.601562 C 93.171875 217.476562 93.113281 217.351562 93.035156 217.234375 Z M 92.40625 216.394531 C 92.515625 216.515625 92.625 216.644531 92.726562 216.785156 C 92.625 216.644531 92.515625 216.515625 92.40625 216.394531 Z M 85.535156 294.199219 L 56.675781 294.199219 L 56.675781 222.742188 L 85.535156 222.742188 Z M 89.007812 214.484375 C 88.773438 214.445312 88.527344 214.429688 88.285156 214.417969 C 88.527344 214.429688 88.773438 214.445312 89.007812 214.484375 Z M 90.023438 214.765625 C 89.84375 214.707031 89.660156 214.652344 89.472656 214.59375 C 89.660156 214.652344 89.84375 214.707031 90.023438 214.765625 Z M 91.011719 215.242188 C 90.832031 215.136719 90.65625 215.035156 90.460938 214.945312 C 90.65625 215.035156 90.832031 215.136719 91.011719 215.242188 Z M 92.074219 216.035156 C 91.847656 215.824219 91.617188 215.625 91.355469 215.445312 C 91.617188 215.625 91.847656 215.824219 92.074219 216.035156 Z M 138.671875 106.707031 L 139 106.707031 C 139.550781 106.6875 140.089844 106.632812 140.640625 106.539062 C 146.378906 106.453125 151.011719 101.769531 151.011719 96.015625 L 151.011719 85.6875 L 190.75 85.6875 L 190.75 96.015625 C 190.921875 101.984375 195.734375 106.675781 201.722656 106.675781 L 202.039062 106.675781 C 202.582031 106.652344 203.125 106.59375 203.6875 106.496094 C 209.433594 106.421875 214.066406 101.730469 214.066406 95.976562 L 214.066406 85.6875 L 253.761719 85.6875 L 253.761719 96.015625 C 253.960938 101.984375 258.808594 106.675781 264.777344 106.675781 L 265.148438 106.675781 C 265.675781 106.652344 266.199219 106.59375 266.746094 106.496094 C 272.484375 106.421875 277.117188 101.730469 277.117188 95.976562 L 277.117188 85.6875 L 286.597656 85.6875 C 291.167969 85.6875 294.886719 89.402344 294.886719 93.953125 L 294.886719 110.191406 L 109.851562 110.191406 L 109.851562 94.011719 C 109.871094 89.460938 113.585938 85.75 118.140625 85.726562 L 127.695312 85.726562 L 127.695312 96.050781 C 127.875 102.023438 132.699219 106.707031 138.671875 106.707031 Z M 135.734375 67.503906 C 135.734375 66.160156 136.082031 64.960938 140.484375 64.960938 C 141.882812 64.960938 143.027344 66.085938 143.027344 67.503906 L 143.027344 95.933594 C 143.027344 97.332031 141.882812 98.464844 140.367188 98.464844 C 140.035156 98.503906 139.707031 98.527344 139.371094 98.527344 C 136.242188 98.527344 135.773438 97.238281 135.734375 95.933594 Z M 198.785156 67.367188 C 198.785156 66.023438 199.136719 64.835938 203.535156 64.835938 C 204.9375 64.835938 206.082031 65.96875 206.082031 67.367188 L 206.082031 95.976562 C 206.082031 97.375 204.9375 98.503906 203.398438 98.503906 C 203.070312 98.539062 202.738281 98.5625 202.402344 98.5625 C 199.292969 98.5625 198.828125 97.277344 198.785156 95.976562 Z M 261.777344 67.367188 C 261.777344 66.023438 262.148438 64.835938 266.589844 64.835938 C 267.992188 64.835938 269.136719 65.96875 269.136719 67.367188 L 269.136719 96.050781 C 269.136719 97.394531 268.765625 98.601562 264.332031 98.601562 C 262.933594 98.601562 261.777344 97.457031 261.777344 96.050781 Z M 294.886719 228.441406 C 292.011719 226.34375 288.464844 225.152344 284.558594 225.152344 C 282.128906 225.152344 279.71875 225.617188 277.332031 226.535156 C 254.894531 235.21875 232.429688 243.882812 210.015625 252.628906 C 209.261719 252.914062 208.402344 253.21875 207.523438 253.21875 C 205.773438 253.21875 204.6875 252.015625 203.953125 250.960938 C 200.652344 246.1875 195.917969 243.738281 189.898438 243.71875 C 186.617188 243.683594 183.308594 243.683594 180.007812 243.683594 C 175.988281 243.683594 171.972656 243.695312 167.730469 243.738281 C 165.425781 243.738281 163.378906 243.210938 161.320312 242.066406 C 156.445312 239.335938 151.554688 236.625 146.671875 233.917969 C 141.273438 230.917969 135.863281 227.941406 130.496094 224.902344 C 127.414062 223.191406 124.238281 222.351562 120.625 222.351562 C 117.050781 222.414062 113.503906 222.414062 109.953125 222.414062 L 109.851562 222.414062 L 109.851562 118.203125 L 294.886719 118.203125 L 294.886719 125.671875 C 280.480469 130.726562 270.109375 144.265625 270.070312 160.132812 C 270.035156 170.089844 273.824219 179.464844 280.734375 186.503906 C 284.785156 190.605469 289.609375 193.664062 294.886719 195.464844 Z M 301.964844 244.328125 C 301.949219 244.425781 301.9375 244.527344 301.929688 244.621094 C 301.9375 244.527344 301.949219 244.425781 301.964844 244.328125 Z M 301.546875 238.746094 C 301.605469 239.019531 301.683594 239.28125 301.738281 239.554688 C 301.746094 239.59375 301.746094 239.628906 301.75 239.671875 C 301.746094 239.636719 301.738281 239.59375 301.730469 239.5625 C 301.683594 239.285156 301.605469 239.019531 301.546875 238.746094 Z M 301.121094 237.214844 C 301.195312 237.457031 301.285156 237.6875 301.351562 237.9375 C 301.285156 237.6875 301.195312 237.457031 301.121094 237.214844 Z M 300.5625 235.699219 C 300.652344 235.914062 300.742188 236.117188 300.824219 236.335938 C 300.742188 236.117188 300.652344 235.914062 300.5625 235.699219 Z M 299.878906 234.257812 C 299.980469 234.453125 300.078125 234.628906 300.171875 234.820312 C 300.082031 234.628906 299.980469 234.453125 299.878906 234.257812 Z M 299.089844 232.914062 C 299.191406 233.066406 299.292969 233.222656 299.390625 233.382812 C 299.292969 233.222656 299.191406 233.066406 299.089844 232.914062 Z M 298.195312 231.652344 C 298.292969 231.777344 298.382812 231.898438 298.476562 232.023438 C 298.382812 231.898438 298.292969 231.777344 298.195312 231.652344 Z M 297.199219 230.492188 C 297.277344 230.578125 297.351562 230.652344 297.421875 230.734375 C 297.351562 230.652344 297.277344 230.578125 297.199219 230.492188 Z M 298.492188 253.148438 C 298.449219 253.203125 298.410156 253.25 298.367188 253.304688 C 298.410156 253.25 298.449219 253.203125 298.492188 253.148438 Z M 299.863281 251.0625 C 299.816406 251.152344 299.769531 251.242188 299.71875 251.324219 C 299.769531 251.242188 299.816406 251.152344 299.863281 251.0625 Z M 300.859375 249 C 300.84375 249.03125 300.832031 249.066406 300.816406 249.101562 C 300.832031 249.066406 300.84375 249.03125 300.859375 249 Z M 301.566406 246.789062 C 301.550781 246.824219 301.546875 246.851562 301.539062 246.886719 C 301.546875 246.851562 301.550781 246.824219 301.566406 246.789062 Z M 296.117188 229.4375 C 296.144531 229.464844 296.164062 229.484375 296.191406 229.511719 C 296.164062 229.484375 296.144531 229.464844 296.117188 229.4375 Z M 302.011719 242.152344 C 302.011719 242.050781 302 241.941406 302 241.832031 C 302 241.941406 302.011719 242.050781 302.011719 242.152344 Z M 277.117188 69.292969 L 286.597656 69.292969 C 300.179688 69.316406 311.25 80.378906 311.269531 93.953125 L 311.269531 123.765625 C 310.007812 123.628906 308.703125 123.554688 307.398438 123.554688 C 305.882812 123.554688 304.378906 123.648438 302.902344 123.820312 L 302.902344 94.011719 C 302.902344 85.007812 295.585938 77.695312 286.597656 77.695312 L 277.117188 77.695312 Z M 319.347656 125.609375 L 319.347656 94.011719 C 319.347656 75.949219 304.65625 61.261719 286.597656 61.261719 L 275.113281 61.261719 C 272.953125 58.421875 269.625 56.730469 266.007812 56.730469 C 265.382812 56.730469 264.757812 56.792969 264.152344 56.886719 C 258.4375 56.960938 253.78125 61.632812 253.761719 67.367188 L 253.761719 77.65625 L 214.066406 77.65625 L 214.066406 67.324219 C 213.867188 61.359375 209.0625 56.707031 203.089844 56.707031 L 202.738281 56.707031 C 202.171875 56.730469 201.628906 56.792969 201.085938 56.886719 C 195.402344 56.984375 190.769531 61.667969 190.75 67.367188 L 190.75 77.65625 L 151.011719 77.65625 L 151.011719 67.367188 C 150.992188 61.632812 146.335938 56.960938 140.597656 56.886719 C 140.035156 56.804688 139.453125 56.75 138.882812 56.75 C 135.265625 56.75 131.902344 58.421875 129.722656 61.261719 L 118.183594 61.261719 C 100.140625 61.261719 85.445312 75.925781 85.425781 94.011719 L 85.425781 214.382812 L 54.222656 214.382812 C 50.957031 214.382812 48.308594 217.039062 48.308594 220.296875 L 48.308594 222.433594 L 35.410156 222.433594 C 33.144531 222.433594 31.292969 224.273438 31.292969 226.535156 C 31.292969 228.820312 33.144531 230.652344 35.410156 230.652344 L 48.308594 230.652344 L 48.308594 287.203125 L 35.410156 287.203125 C 33.144531 287.203125 31.292969 289.039062 31.292969 291.304688 C 31.292969 293.566406 33.144531 295.417969 35.410156 295.417969 L 48.308594 295.417969 L 48.308594 296.640625 C 48.308594 299.902344 50.957031 302.550781 54.222656 302.550781 L 87.984375 302.550781 C 91.246094 302.550781 93.921875 299.902344 93.921875 296.597656 L 93.921875 295.378906 L 99.289062 295.378906 L 100.511719 295.417969 L 100.511719 295.4375 L 100.738281 295.4375 C 102.527344 295.480469 104.140625 296.007812 105.671875 296.535156 L 122.234375 302.085938 C 137.433594 307.140625 152.628906 312.214844 167.785156 317.371094 C 169.808594 318.046875 171.726562 318.394531 173.640625 318.394531 C 176.398438 318.394531 179.089844 317.679688 181.882812 316.214844 C 195.375 309.121094 208.910156 302.058594 222.4375 294.980469 L 286.597656 294.980469 C 304.632812 294.980469 319.328125 280.324219 319.347656 262.289062 L 319.347656 195.316406 C 333.707031 190.242188 344.003906 176.660156 344.042969 160.734375 C 344.085938 144.515625 333.75 130.652344 319.347656 125.609375 " fill-opacity="1" fill-rule="nonzero"/></g><path fill="#231f20" d="M 321.875 145.609375 C 321.773438 145.597656 321.675781 145.597656 321.574219 145.597656 C 320.007812 145.597656 318.230469 146.613281 317.289062 147.621094 C 313.179688 151.988281 309.238281 156.367188 305.074219 161 L 301.574219 164.890625 L 296.714844 159.308594 C 295.503906 157.914062 294.3125 157.242188 293.0625 157.242188 C 292.191406 157.242188 291.324219 157.585938 290.496094 158.257812 C 289.464844 159.09375 288.890625 160.054688 288.792969 161.113281 C 288.683594 162.285156 289.171875 163.53125 290.253906 164.800781 L 292.273438 167.1875 C 294.085938 169.34375 295.898438 171.488281 297.757812 173.585938 C 299 174.992188 300.199219 175.671875 301.429688 175.671875 C 302.664062 175.671875 303.863281 175.007812 305.203125 173.585938 C 306.691406 172.003906 308.140625 170.378906 309.589844 168.746094 L 311.484375 166.632812 L 315.140625 162.585938 C 318.039062 159.382812 320.949219 156.179688 323.789062 152.921875 C 325.140625 151.367188 325.59375 149.410156 324.957031 147.820312 C 324.449219 146.550781 323.324219 145.742188 321.875 145.609375 " fill-opacity="1" fill-rule="nonzero"/></svg>