<svg xmlns="http://www.w3.org/2000/svg" xmlns:xlink="http://www.w3.org/1999/xlink" width="500" zoomAndPan="magnify" viewBox="0 0 375 374.999991" height="500" preserveAspectRatio="xMidYMid meet" version="1.0"><defs><clipPath id="id1"><path d="M 59.554688 59.554688 L 315.304688 59.554688 L 315.304688 315.304688 L 59.554688 315.304688 Z M 59.554688 59.554688 " clip-rule="nonzero"/></clipPath></defs><rect x="-37.5" width="450" fill="#ffffff" y="-37.499999" height="449.999989" fill-opacity="1"/><rect x="-37.5" width="450" fill="#ffffff" y="-37.499999" height="449.999989" fill-opacity="1"/><rect x="-37.5" width="450" fill="#ffffff" y="-37.499999" height="449.999989" fill-opacity="1"/><g clip-path="url(#id1)"><path fill="#000000" d="M 89.066406 59.554688 C 72.828125 59.554688 59.554688 72.828125 59.554688 89.066406 L 59.554688 186.605469 C 59.46875 187.140625 59.46875 187.675781 59.554688 188.207031 L 59.554688 285.796875 C 59.554688 302.035156 72.828125 315.304688 89.066406 315.304688 L 285.796875 315.304688 C 302.035156 315.304688 315.304688 302.035156 315.304688 285.796875 L 315.304688 188.257812 C 315.394531 187.722656 315.394531 187.1875 315.304688 186.652344 L 315.304688 89.066406 C 315.304688 72.828125 302.035156 59.554688 285.796875 59.554688 Z M 89.066406 69.390625 L 285.796875 69.390625 C 296.714844 69.390625 305.46875 78.144531 305.46875 89.066406 L 305.46875 182.511719 L 285.796875 182.511719 C 285.46875 182.507812 285.148438 182.535156 284.828125 182.59375 C 284.507812 182.65625 284.195312 182.746094 283.894531 182.867188 C 283.589844 182.988281 283.304688 183.136719 283.03125 183.316406 C 282.757812 183.496094 282.503906 183.699219 282.273438 183.929688 C 282.042969 184.15625 281.835938 184.40625 281.652344 184.675781 C 281.46875 184.945312 281.316406 185.230469 281.1875 185.53125 C 281.0625 185.832031 280.96875 186.144531 280.90625 186.460938 C 280.839844 186.78125 280.808594 187.105469 280.808594 187.429688 C 280.808594 187.757812 280.839844 188.078125 280.90625 188.398438 C 280.96875 188.71875 281.0625 189.027344 281.1875 189.328125 C 281.316406 189.628906 281.46875 189.914062 281.652344 190.183594 C 281.835938 190.453125 282.042969 190.703125 282.273438 190.933594 C 282.503906 191.160156 282.757812 191.367188 283.03125 191.542969 C 283.304688 191.722656 283.589844 191.875 283.894531 191.996094 C 284.195312 192.117188 284.507812 192.207031 284.828125 192.265625 C 285.148438 192.324219 285.46875 192.355469 285.796875 192.347656 L 305.46875 192.347656 L 305.46875 285.796875 C 305.46875 296.714844 296.714844 305.46875 285.796875 305.46875 L 89.066406 305.46875 C 78.144531 305.46875 69.390625 296.714844 69.390625 285.796875 L 69.390625 192.347656 L 226.777344 192.347656 C 227.101562 192.355469 227.425781 192.324219 227.746094 192.265625 C 228.066406 192.207031 228.378906 192.117188 228.679688 191.996094 C 228.984375 191.875 229.269531 191.722656 229.542969 191.542969 C 229.816406 191.367188 230.066406 191.160156 230.300781 190.933594 C 230.53125 190.703125 230.738281 190.453125 230.921875 190.183594 C 231.105469 189.914062 231.257812 189.628906 231.382812 189.328125 C 231.507812 189.027344 231.605469 188.71875 231.667969 188.398438 C 231.734375 188.078125 231.765625 187.757812 231.765625 187.429688 C 231.765625 187.105469 231.734375 186.78125 231.667969 186.460938 C 231.605469 186.144531 231.507812 185.832031 231.382812 185.53125 C 231.257812 185.230469 231.105469 184.945312 230.921875 184.675781 C 230.738281 184.40625 230.53125 184.15625 230.300781 183.929688 C 230.066406 183.699219 229.816406 183.496094 229.542969 183.316406 C 229.269531 183.136719 228.984375 182.988281 228.679688 182.867188 C 228.378906 182.746094 228.066406 182.65625 227.746094 182.59375 C 227.425781 182.535156 227.101562 182.507812 226.777344 182.511719 L 69.390625 182.511719 L 69.390625 89.066406 C 69.390625 78.144531 78.144531 69.390625 89.066406 69.390625 Z M 130.523438 89.066406 C 118.5 89.066406 108.738281 93.984375 108.738281 108.738281 L 108.738281 143.167969 C 108.738281 157.921875 118.574219 162.839844 130.824219 162.839844 C 143.167969 162.839844 153.003906 157.921875 153.003906 143.167969 L 153.003906 127.402344 C 153.003906 125.5 150.253906 123.492188 148.085938 123.492188 L 133.328125 123.492188 C 131.160156 123.492188 128.410156 126.414062 128.410156 128.410156 C 128.410156 130.613281 131.160156 133.328125 133.328125 133.328125 L 143.167969 133.328125 L 143.167969 143.167969 C 143.167969 148.085938 138.132812 152.984375 130.832031 152.984375 C 123.441406 152.984375 118.574219 148.085938 118.574219 143.167969 L 118.574219 108.738281 C 118.574219 103.820312 123.371094 98.863281 130.765625 98.863281 C 139.335938 98.863281 141.964844 103.382812 142.5625 109.191406 C 142.65625 111.792969 145.324219 113.65625 148.085938 113.65625 C 151.539062 113.65625 153.003906 111.683594 153.003906 107.585938 C 153.003906 96.273438 143.734375 89.066406 130.523438 89.066406 Z M 176.664062 89.066406 C 174.234375 89.066406 172.675781 90.683594 172.675781 92.496094 L 172.675781 157.921875 C 172.675781 160.242188 175.0625 162.839844 177.59375 162.839844 C 180.21875 162.839844 182.511719 160.242188 182.511719 157.921875 L 182.511719 133.328125 L 192.347656 133.328125 C 204.605469 133.328125 216.941406 129.808594 216.941406 113.65625 L 216.941406 108.738281 C 216.941406 92.488281 204.316406 89.066406 192.347656 89.066406 Z M 248.851562 89.066406 C 245.820312 89.066406 242.890625 90.265625 242.078125 92.667969 L 221.953125 157.535156 C 221.855469 157.84375 221.859375 158.136719 221.859375 158.441406 C 221.859375 161.035156 225.605469 162.839844 228.535156 162.839844 C 230.351562 162.839844 231.769531 162.242188 232.273438 160.640625 L 235.960938 148.027344 L 261.820312 148.09375 L 265.546875 160.640625 C 266.054688 162.242188 267.460938 162.839844 269.179688 162.839844 C 272.210938 162.839844 275.960938 160.9375 275.960938 158.441406 C 275.960938 158.136719 275.851562 157.84375 275.75 157.535156 L 255.730469 92.667969 C 254.921875 90.265625 251.886719 89.066406 248.851562 89.066406 Z M 182.511719 98.902344 L 192.347656 98.902344 C 199.550781 98.902344 207.105469 99.855469 207.105469 108.738281 L 207.105469 113.65625 C 207.105469 122.535156 199.550781 123.492188 192.347656 123.492188 L 182.511719 123.492188 Z M 248.859375 103.578125 L 259.109375 138.21875 L 238.574219 138.277344 Z M 246.449219 182.511719 C 246.125 182.507812 245.800781 182.535156 245.480469 182.59375 C 245.160156 182.65625 244.847656 182.746094 244.546875 182.867188 C 244.242188 182.988281 243.957031 183.136719 243.683594 183.316406 C 243.410156 183.496094 243.160156 183.699219 242.925781 183.929688 C 242.695312 184.15625 242.488281 184.40625 242.304688 184.675781 C 242.121094 184.945312 241.96875 185.230469 241.84375 185.53125 C 241.71875 185.832031 241.621094 186.144531 241.558594 186.460938 C 241.492188 186.78125 241.460938 187.105469 241.460938 187.429688 C 241.460938 187.757812 241.492188 188.078125 241.558594 188.398438 C 241.621094 188.71875 241.71875 189.027344 241.84375 189.328125 C 241.96875 189.628906 242.121094 189.914062 242.304688 190.183594 C 242.488281 190.453125 242.695312 190.703125 242.925781 190.933594 C 243.160156 191.160156 243.410156 191.367188 243.683594 191.542969 C 243.957031 191.722656 244.242188 191.875 244.546875 191.996094 C 244.847656 192.117188 245.160156 192.207031 245.480469 192.265625 C 245.800781 192.324219 246.125 192.355469 246.449219 192.347656 L 266.125 192.347656 C 266.449219 192.355469 266.773438 192.324219 267.09375 192.265625 C 267.414062 192.207031 267.722656 192.117188 268.027344 191.996094 C 268.328125 191.875 268.617188 191.722656 268.890625 191.542969 C 269.160156 191.367188 269.414062 191.160156 269.644531 190.933594 C 269.878906 190.703125 270.085938 190.453125 270.269531 190.183594 C 270.449219 189.914062 270.605469 189.628906 270.730469 189.328125 C 270.855469 189.027344 270.949219 188.71875 271.015625 188.398438 C 271.078125 188.078125 271.109375 187.757812 271.109375 187.429688 C 271.109375 187.105469 271.078125 186.78125 271.015625 186.460938 C 270.949219 186.144531 270.855469 185.832031 270.730469 185.53125 C 270.605469 185.230469 270.449219 184.945312 270.269531 184.675781 C 270.085938 184.40625 269.878906 184.15625 269.644531 183.929688 C 269.414062 183.699219 269.160156 183.496094 268.890625 183.316406 C 268.617188 183.136719 268.328125 182.988281 268.027344 182.867188 C 267.722656 182.746094 267.414062 182.65625 267.09375 182.59375 C 266.773438 182.535156 266.449219 182.507812 266.125 182.511719 Z M 182.511719 207.105469 C 179.5625 207.105469 177.59375 209.070312 177.59375 212.023438 C 177.59375 214.972656 179.5625 216.941406 182.511719 216.941406 L 192.347656 216.941406 C 195.300781 216.941406 197.265625 214.972656 197.265625 212.023438 C 197.265625 209.070312 195.300781 207.105469 192.347656 207.105469 Z M 128.335938 211.953125 C 128.011719 211.960938 127.691406 211.996094 127.378906 212.0625 C 127.0625 212.132812 126.757812 212.230469 126.460938 212.359375 C 126.164062 212.484375 125.882812 212.640625 125.617188 212.824219 C 125.351562 213.007812 125.109375 213.214844 124.882812 213.445312 C 124.65625 213.675781 124.457031 213.929688 124.28125 214.199219 C 124.109375 214.46875 123.960938 214.753906 123.839844 215.054688 C 123.722656 215.355469 123.632812 215.664062 123.574219 215.980469 C 123.515625 216.296875 123.488281 216.617188 123.492188 216.941406 L 123.492188 241.53125 L 98.902344 241.53125 C 98.574219 241.527344 98.253906 241.554688 97.933594 241.613281 C 97.613281 241.671875 97.300781 241.765625 97 241.886719 C 96.695312 242.007812 96.410156 242.15625 96.136719 242.335938 C 95.863281 242.515625 95.609375 242.71875 95.378906 242.945312 C 95.148438 243.175781 94.9375 243.425781 94.757812 243.695312 C 94.574219 243.964844 94.421875 244.25 94.292969 244.550781 C 94.167969 244.851562 94.074219 245.164062 94.007812 245.480469 C 93.945312 245.800781 93.914062 246.125 93.914062 246.449219 C 93.914062 246.777344 93.945312 247.097656 94.007812 247.417969 C 94.074219 247.738281 94.167969 248.046875 94.292969 248.347656 C 94.421875 248.648438 94.574219 248.933594 94.757812 249.203125 C 94.9375 249.472656 95.148438 249.722656 95.378906 249.953125 C 95.609375 250.179688 95.863281 250.386719 96.136719 250.5625 C 96.410156 250.742188 96.695312 250.894531 97 251.015625 C 97.300781 251.136719 97.613281 251.226562 97.933594 251.285156 C 98.253906 251.34375 98.574219 251.371094 98.902344 251.367188 L 123.492188 251.367188 L 123.492188 275.960938 C 123.488281 276.285156 123.515625 276.609375 123.574219 276.929688 C 123.636719 277.25 123.726562 277.5625 123.847656 277.863281 C 123.96875 278.164062 124.117188 278.453125 124.296875 278.726562 C 124.476562 279 124.679688 279.25 124.910156 279.484375 C 125.136719 279.714844 125.386719 279.921875 125.65625 280.105469 C 125.925781 280.285156 126.210938 280.441406 126.511719 280.566406 C 126.8125 280.691406 127.125 280.789062 127.445312 280.851562 C 127.761719 280.914062 128.085938 280.949219 128.410156 280.949219 C 128.738281 280.949219 129.058594 280.914062 129.378906 280.851562 C 129.699219 280.789062 130.007812 280.691406 130.308594 280.566406 C 130.609375 280.441406 130.894531 280.285156 131.164062 280.105469 C 131.4375 279.921875 131.683594 279.714844 131.914062 279.484375 C 132.144531 279.25 132.347656 279 132.523438 278.726562 C 132.703125 278.453125 132.855469 278.164062 132.976562 277.863281 C 133.097656 277.5625 133.1875 277.25 133.246094 276.929688 C 133.308594 276.609375 133.335938 276.285156 133.328125 275.960938 L 133.328125 251.367188 L 157.921875 251.367188 C 158.246094 251.371094 158.570312 251.34375 158.890625 251.285156 C 159.210938 251.226562 159.523438 251.136719 159.824219 251.015625 C 160.128906 250.894531 160.414062 250.742188 160.6875 250.5625 C 160.960938 250.386719 161.210938 250.179688 161.445312 249.953125 C 161.675781 249.722656 161.882812 249.472656 162.066406 249.203125 C 162.25 248.933594 162.402344 248.648438 162.527344 248.347656 C 162.65625 248.046875 162.75 247.738281 162.8125 247.417969 C 162.878906 247.097656 162.910156 246.777344 162.910156 246.449219 C 162.910156 246.125 162.878906 245.800781 162.8125 245.480469 C 162.75 245.164062 162.65625 244.851562 162.527344 244.550781 C 162.402344 244.25 162.25 243.964844 162.066406 243.695312 C 161.882812 243.425781 161.675781 243.175781 161.445312 242.949219 C 161.210938 242.71875 160.960938 242.515625 160.6875 242.335938 C 160.414062 242.15625 160.128906 242.007812 159.824219 241.886719 C 159.523438 241.765625 159.210938 241.671875 158.890625 241.613281 C 158.570312 241.554688 158.246094 241.527344 157.921875 241.53125 L 133.328125 241.53125 L 133.328125 216.941406 C 133.335938 216.613281 133.304688 216.285156 133.246094 215.960938 C 133.183594 215.636719 133.089844 215.324219 132.96875 215.019531 C 132.84375 214.714844 132.691406 214.425781 132.507812 214.152344 C 132.328125 213.878906 132.121094 213.625 131.886719 213.390625 C 131.652344 213.160156 131.398438 212.953125 131.125 212.769531 C 130.851562 212.589844 130.5625 212.4375 130.257812 212.3125 C 129.949219 212.191406 129.636719 212.097656 129.3125 212.039062 C 128.988281 211.976562 128.664062 211.949219 128.335938 211.953125 Z M 182.511719 231.695312 C 179.5625 231.695312 177.59375 233.664062 177.59375 236.613281 C 177.59375 239.5625 179.5625 241.53125 182.511719 241.53125 L 192.347656 241.53125 C 195.300781 241.53125 197.265625 239.5625 197.265625 236.613281 C 197.265625 233.664062 195.300781 231.695312 192.347656 231.695312 Z M 216.941406 241.53125 C 216.613281 241.527344 216.292969 241.554688 215.972656 241.613281 C 215.652344 241.671875 215.339844 241.765625 215.035156 241.886719 C 214.734375 242.007812 214.445312 242.15625 214.175781 242.335938 C 213.902344 242.515625 213.648438 242.71875 213.417969 242.945312 C 213.183594 243.175781 212.976562 243.425781 212.796875 243.695312 C 212.613281 243.964844 212.457031 244.25 212.332031 244.550781 C 212.207031 244.851562 212.113281 245.164062 212.046875 245.480469 C 211.984375 245.800781 211.953125 246.125 211.953125 246.449219 C 211.953125 246.777344 211.984375 247.097656 212.046875 247.417969 C 212.113281 247.738281 212.207031 248.046875 212.332031 248.347656 C 212.457031 248.648438 212.613281 248.933594 212.796875 249.203125 C 212.976562 249.472656 213.183594 249.722656 213.417969 249.953125 C 213.648438 250.179688 213.902344 250.386719 214.175781 250.5625 C 214.445312 250.742188 214.734375 250.894531 215.035156 251.015625 C 215.339844 251.136719 215.652344 251.226562 215.972656 251.285156 C 216.292969 251.34375 216.613281 251.371094 216.941406 251.367188 L 275.960938 251.367188 C 276.285156 251.371094 276.609375 251.34375 276.929688 251.285156 C 277.25 251.226562 277.5625 251.136719 277.863281 251.015625 C 278.164062 250.894531 278.453125 250.742188 278.726562 250.5625 C 279 250.386719 279.25 250.179688 279.484375 249.953125 C 279.714844 249.722656 279.921875 249.472656 280.105469 249.203125 C 280.289062 248.933594 280.441406 248.648438 280.566406 248.347656 C 280.691406 248.046875 280.789062 247.738281 280.851562 247.417969 C 280.917969 247.097656 280.949219 246.777344 280.949219 246.449219 C 280.949219 246.125 280.917969 245.800781 280.851562 245.480469 C 280.789062 245.164062 280.691406 244.851562 280.566406 244.550781 C 280.441406 244.25 280.289062 243.964844 280.105469 243.695312 C 279.921875 243.425781 279.714844 243.175781 279.484375 242.949219 C 279.25 242.71875 279 242.515625 278.726562 242.335938 C 278.453125 242.15625 278.164062 242.007812 277.863281 241.886719 C 277.5625 241.765625 277.25 241.671875 276.929688 241.613281 C 276.609375 241.554688 276.285156 241.527344 275.960938 241.53125 Z M 182.511719 256.285156 C 179.5625 256.285156 177.59375 258.253906 177.59375 261.203125 C 177.59375 264.15625 179.5625 266.125 182.511719 266.125 L 192.347656 266.125 C 195.300781 266.125 197.265625 264.15625 197.265625 261.203125 C 197.265625 258.253906 195.300781 256.285156 192.347656 256.285156 Z M 182.511719 280.878906 C 179.5625 280.878906 177.59375 282.84375 177.59375 285.796875 C 177.59375 288.746094 179.5625 290.714844 182.511719 290.714844 L 192.347656 290.714844 C 195.300781 290.714844 197.265625 288.746094 197.265625 285.796875 C 197.265625 282.84375 195.300781 280.878906 192.347656 280.878906 Z M 182.511719 280.878906 " fill-opacity="1" fill-rule="nonzero"/></g></svg>