<svg xmlns="http://www.w3.org/2000/svg" xmlns:xlink="http://www.w3.org/1999/xlink" width="200" zoomAndPan="magnify" viewBox="0 0 150 50.249999" height="67" preserveAspectRatio="xMidYMid meet" version="1.0"><defs><g/><clipPath id="8e476354d8"><path d="M 1.101562 0 L 148.894531 0 L 148.894531 49.511719 L 1.101562 49.511719 Z M 1.101562 0 " clip-rule="nonzero"/></clipPath><clipPath id="3a2616220b"><path d="M 37.886719 0 L 148.894531 0 L 148.894531 49.511719 L 37.886719 49.511719 Z M 37.886719 0 " clip-rule="nonzero"/></clipPath><clipPath id="354b6aea02"><path d="M 1.101562 0 L 43 0 L 43 3 L 1.101562 3 Z M 1.101562 0 " clip-rule="nonzero"/></clipPath><clipPath id="f28cd8e362"><path d="M 1.101562 46 L 43 46 L 43 49.511719 L 1.101562 49.511719 Z M 1.101562 46 " clip-rule="nonzero"/></clipPath><clipPath id="a8d7608000"><path d="M 1.101562 0 L 5 0 L 5 49.511719 L 1.101562 49.511719 Z M 1.101562 0 " clip-rule="nonzero"/></clipPath><clipPath id="4510bcd5bb"><path d="M 8.8125 9.027344 L 34.679688 9.027344 L 34.679688 40.800781 L 8.8125 40.800781 Z M 8.8125 9.027344 " clip-rule="nonzero"/></clipPath></defs><g clip-path="url(#8e476354d8)"><path fill="#ffffff" d="M 1.101562 0 L 148.898438 0 L 148.898438 56.902344 L 1.101562 56.902344 Z M 1.101562 0 " fill-opacity="1" fill-rule="nonzero"/><path fill="#ffffff" d="M 1.101562 0 L 148.898438 0 L 148.898438 49.511719 L 1.101562 49.511719 Z M 1.101562 0 " fill-opacity="1" fill-rule="nonzero"/></g><g clip-path="url(#3a2616220b)"><path fill="#676cfd" d="M 37.886719 0 L 153.167969 0 L 153.167969 49.507812 L 37.886719 49.507812 L 37.886719 0 " fill-opacity="1" fill-rule="nonzero"/></g><g clip-path="url(#354b6aea02)"><path stroke-linecap="butt" transform="matrix(2.970736, 0, 0, 2.955882, -14.728019, 1.477941)" fill="none" stroke-linejoin="miter" d="M 0.000490372 -0.000466383 L 18.660376 -0.000466383 " stroke="#676cfd" stroke-width="1" stroke-opacity="1" stroke-miterlimit="4"/></g><g clip-path="url(#f28cd8e362)"><path stroke-linecap="butt" transform="matrix(2.970736, 0, 0, 2.955882, -14.728019, 48.033085)" fill="none" stroke-linejoin="miter" d="M 0.000490372 -0.000620761 L 18.660376 -0.000620761 " stroke="#676cfd" stroke-width="1" stroke-opacity="1" stroke-miterlimit="4"/></g><g clip-path="url(#a8d7608000)"><path stroke-linecap="butt" transform="matrix(0.000000000000000182, 2.970736, -2.955882, 0.000000000000000181, 2.575342, -5.640193)" fill="none" stroke-linejoin="miter" d="M -0.000145506 0.000380095 L 18.65974 0.000380095 " stroke="#676cfd" stroke-width="1" stroke-opacity="1" stroke-miterlimit="4"/></g><g clip-path="url(#4510bcd5bb)"><path fill="#2a3c91" d="M 8.800781 40.746094 L 8.800781 9.082031 L 34.660156 25.28125 L 18.390625 25.28125 L 33.625 40.746094 L 8.800781 40.746094 " fill-opacity="1" fill-rule="nonzero"/></g><path fill="#ed183b" d="M 9.742188 10.789062 L 9.742188 39.796875 L 31.359375 39.796875 L 16.128906 24.332031 L 31.359375 24.332031 L 9.742188 10.789062 " fill-opacity="1" fill-rule="nonzero"/><path fill="#ffffff" d="M 19.414062 19.332031 C 19.113281 20.277344 18.433594 21.082031 17.535156 21.597656 L 17.125 21.285156 L 17.839844 20.742188 L 16.972656 20.535156 L 17.472656 19.71875 L 16.542969 19.886719 L 16.707031 18.949219 L 15.898438 19.414062 L 15.671875 18.535156 L 15.160156 19.269531 L 14.648438 18.535156 L 14.421875 19.414062 L 13.613281 18.949219 L 13.777344 19.886719 L 12.847656 19.71875 L 13.347656 20.535156 L 12.480469 20.742188 L 13.199219 21.285156 L 12.785156 21.597656 C 11.886719 21.082031 11.207031 20.277344 10.90625 19.332031 C 10.898438 19.425781 10.894531 19.523438 10.894531 19.625 C 10.894531 21.824219 12.804688 23.605469 15.160156 23.605469 C 17.515625 23.605469 19.425781 21.824219 19.425781 19.625 C 19.425781 19.523438 19.421875 19.425781 19.414062 19.332031 " fill-opacity="1" fill-rule="nonzero"/><path fill="#ffffff" d="M 19.191406 34.433594 L 17.300781 34.226562 L 17.507812 36.132812 L 15.96875 35 L 15.203125 36.757812 L 14.4375 35 L 12.898438 36.132812 L 13.109375 34.226562 L 11.214844 34.433594 L 12.339844 32.886719 L 10.597656 32.113281 L 12.339844 31.339844 L 11.214844 29.792969 L 13.109375 30.003906 L 12.898438 28.097656 L 14.4375 29.230469 L 15.203125 27.472656 L 15.96875 29.230469 L 17.507812 28.097656 L 17.300781 30.003906 L 19.191406 29.792969 L 18.066406 31.339844 L 19.808594 32.113281 L 18.066406 32.886719 L 19.191406 34.433594 " fill-opacity="1" fill-rule="nonzero"/><g fill="#ffffff" fill-opacity="1"><g transform="translate(40.42874, 33.992645)"><g><path d="M 9.800781 0.414062 C 14.113281 0.414062 18.363281 -1.328125 18.363281 -5.964844 C 18.363281 -10.539062 14.316406 -11.691406 10.066406 -12.3125 C 7.351562 -12.695312 5.046875 -13.253906 5.046875 -15.261719 C 5.046875 -17.035156 7.054688 -18.183594 9.832031 -18.183594 C 11.984375 -18.183594 13.964844 -17.300781 14.9375 -15.851562 L 17.449219 -17.535156 C 15.707031 -20.3125 12.722656 -21.019531 9.742188 -21.019531 C 5.964844 -21.019531 1.769531 -19.277344 1.769531 -15.320312 C 1.769531 -10.894531 5.667969 -9.890625 9.773438 -9.300781 C 12.695312 -8.886719 15.054688 -8.089844 15.054688 -5.964844 C 15.054688 -3.335938 12.3125 -2.539062 9.832031 -2.539062 C 7.441406 -2.539062 4.902344 -3.425781 3.394531 -5.933594 L 0.914062 -4.28125 C 2.804688 -0.796875 5.816406 0.414062 9.800781 0.414062 Z M 9.800781 0.414062 "/></g></g></g><g fill="#ffffff" fill-opacity="1"><g transform="translate(59.907079, 33.992645)"><g><path d="M 11.070312 0.414062 C 15.851562 0.414062 19.867188 -2.449219 19.867188 -8.53125 L 19.867188 -20.664062 L 16.589844 -20.664062 L 16.589844 -8.53125 C 16.589844 -4.695312 14.316406 -2.628906 11.1875 -2.628906 C 7.941406 -2.628906 5.609375 -4.695312 5.609375 -8.53125 L 5.609375 -20.664062 L 2.332031 -20.664062 L 2.332031 -8.53125 C 2.332031 -2.6875 6.257812 0.414062 11.070312 0.414062 Z M 11.070312 0.414062 "/></g></g></g><g fill="#ffffff" fill-opacity="1"><g transform="translate(82.100584, 33.992645)"><g><path d="M 2.597656 0 L 5.90625 0 L 5.90625 -7.144531 L 10.273438 -7.144531 L 16.5625 0 L 20.429688 0 L 20.074219 -0.589844 L 13.90625 -7.46875 C 17.980469 -8.03125 19.515625 -10.980469 19.515625 -13.90625 C 19.515625 -17.386719 17.003906 -20.664062 12.222656 -20.664062 L 2.597656 -20.664062 Z M 5.90625 -10.15625 L 5.90625 -17.625 L 12.222656 -17.625 C 14.9375 -17.625 16.148438 -15.707031 16.148438 -13.847656 C 16.148438 -11.867188 14.910156 -10.15625 12.191406 -10.15625 Z M 5.90625 -10.15625 "/></g></g></g><g fill="#ffffff" fill-opacity="1"><g transform="translate(103.379194, 33.992645)"><g><path d="M 0.265625 0 L 3.777344 0 L 5.726562 -4.339844 L 16.917969 -4.339844 L 18.894531 0 L 22.40625 0 L 13.136719 -20.664062 L 9.535156 -20.664062 Z M 6.96875 -7.351562 L 11.335938 -17.183594 L 15.707031 -7.351562 Z M 6.96875 -7.351562 "/></g></g></g><g fill="#ffffff" fill-opacity="1"><g transform="translate(126.044897, 33.992645)"><g><path d="M 9.652344 0.382812 C 15.085938 0.382812 18.511719 -3.246094 18.511719 -8.5625 L 18.511719 -20.664062 L 8.5625 -20.664062 L 8.5625 -17.59375 L 15.203125 -17.59375 L 15.203125 -8.5625 C 15.203125 -5.136719 13.285156 -2.714844 9.652344 -2.714844 C 6.023438 -2.714844 4.074219 -4.722656 4.074219 -8.382812 L 0.828125 -8.382812 C 0.828125 -2.835938 4.515625 0.382812 9.652344 0.382812 Z M 9.652344 0.382812 "/></g></g></g></svg>