<svg xmlns="http://www.w3.org/2000/svg" xmlns:xlink="http://www.w3.org/1999/xlink" width="500" zoomAndPan="magnify" viewBox="0 0 375 374.999991" height="500" preserveAspectRatio="xMidYMid meet" version="1.0"><defs><clipPath id="id1"><path d="M 286 54.390625 L 320.640625 54.390625 L 320.640625 261 L 286 261 Z M 286 54.390625 " clip-rule="nonzero"/></clipPath><clipPath id="id2"><path d="M 54.390625 286 L 261 286 L 261 320.640625 L 54.390625 320.640625 Z M 54.390625 286 " clip-rule="nonzero"/></clipPath><clipPath id="id3"><path d="M 54.390625 54.390625 L 304 54.390625 L 304 320.640625 L 54.390625 320.640625 Z M 54.390625 54.390625 " clip-rule="nonzero"/></clipPath><clipPath id="id4"><path d="M 307 269 L 320.640625 269 L 320.640625 278 L 307 278 Z M 307 269 " clip-rule="nonzero"/></clipPath></defs><rect x="-37.5" width="450" fill="#ffffff" y="-37.499999" height="449.999989" fill-opacity="1"/><rect x="-37.5" width="450" fill="#ffffff" y="-37.499999" height="449.999989" fill-opacity="1"/><rect x="-37.5" width="450" fill="#ffffff" y="-37.499999" height="449.999989" fill-opacity="1"/><path fill="#100f0d" d="M 204.738281 257.261719 L 204.738281 177.578125 L 195.863281 177.578125 L 195.863281 257.261719 L 183.109375 257.261719 L 183.109375 185.4375 L 174.238281 185.4375 L 174.238281 257.261719 L 161.53125 257.261719 L 161.53125 195.667969 L 152.621094 195.667969 L 152.621094 257.261719 L 132.984375 257.261719 L 132.984375 266.230469 L 213.585938 266.230469 L 213.585938 257.261719 L 204.738281 257.261719 " fill-opacity="1" fill-rule="nonzero"/><path fill="#100f0d" d="M 106.644531 250.019531 C 89.242188 250.019531 75.078125 235.773438 75.078125 218.269531 C 75.078125 200.769531 89.242188 186.53125 106.644531 186.53125 C 124.066406 186.53125 138.25 200.769531 138.25 218.269531 C 138.25 235.773438 124.066406 250.019531 106.644531 250.019531 Z M 147.113281 218.269531 C 147.113281 207.34375 142.632812 196.773438 134.777344 189.113281 L 155.992188 166.269531 L 167.535156 177.96875 L 192.195312 152.910156 L 192.195312 164.273438 L 201.105469 164.273438 L 201.105469 137.574219 L 174.691406 137.574219 L 174.691406 146.527344 L 186.027344 146.527344 L 167.535156 165.320312 L 155.746094 153.371094 L 127.710938 183.570312 C 121.351562 179.648438 114.082031 177.578125 106.644531 177.578125 C 84.347656 177.578125 66.203125 195.832031 66.203125 218.269531 C 66.203125 240.710938 84.347656 258.972656 106.644531 258.972656 C 128.960938 258.972656 147.113281 240.710938 147.113281 218.269531 " fill-opacity="1" fill-rule="nonzero"/><path fill="#100f0d" d="M 111.128906 195.738281 L 102.1875 195.738281 L 102.1875 201.226562 L 93.558594 201.226562 L 93.558594 222.726562 L 110.835938 222.726562 L 110.835938 226.371094 L 93.558594 226.371094 L 93.558594 235.324219 L 102.1875 235.324219 L 102.1875 240.8125 L 111.128906 240.8125 L 111.128906 235.324219 L 119.707031 235.324219 L 119.707031 213.773438 L 102.480469 213.773438 L 102.480469 210.179688 L 119.707031 210.179688 L 119.707031 201.226562 L 111.128906 201.226562 L 111.128906 195.738281 " fill-opacity="1" fill-rule="nonzero"/><g clip-path="url(#id1)"><path fill="#100f0d" d="M 313.207031 240.214844 L 307.65625 245.765625 L 307.65625 68.996094 L 313.207031 74.546875 C 314.007812 75.347656 315.101562 75.800781 316.238281 75.800781 C 317.378906 75.800781 318.472656 75.347656 319.273438 74.546875 C 320.082031 73.742188 320.53125 72.652344 320.53125 71.507812 C 320.53125 70.371094 320.082031 69.28125 319.273438 68.472656 L 306.398438 55.59375 C 305.992188 55.199219 305.519531 54.882812 305.003906 54.660156 C 304.476562 54.445312 303.921875 54.332031 303.359375 54.332031 C 302.792969 54.332031 302.238281 54.445312 301.710938 54.660156 C 301.195312 54.882812 300.722656 55.199219 300.324219 55.59375 L 287.441406 68.472656 C 287.042969 68.875 286.726562 69.347656 286.511719 69.867188 C 286.296875 70.390625 286.183594 70.945312 286.183594 71.507812 C 286.183594 72.078125 286.296875 72.632812 286.511719 73.15625 C 286.726562 73.675781 287.042969 74.148438 287.441406 74.546875 C 287.839844 74.945312 288.3125 75.257812 288.835938 75.472656 C 289.355469 75.695312 289.917969 75.800781 290.480469 75.800781 C 291.039062 75.800781 291.601562 75.695312 292.121094 75.472656 C 292.644531 75.257812 293.113281 74.945312 293.515625 74.546875 L 299.066406 68.996094 L 299.066406 245.765625 L 293.515625 240.214844 C 293.113281 239.816406 292.644531 239.5 292.121094 239.285156 C 291.601562 239.070312 291.039062 238.957031 290.480469 238.957031 C 289.917969 238.957031 289.355469 239.070312 288.835938 239.285156 C 288.3125 239.5 287.839844 239.816406 287.441406 240.214844 C 287.042969 240.609375 286.726562 241.085938 286.511719 241.609375 C 286.296875 242.125 286.183594 242.6875 286.183594 243.25 C 286.183594 243.8125 286.296875 244.375 286.511719 244.890625 C 286.726562 245.417969 287.042969 245.882812 287.441406 246.289062 L 300.324219 259.164062 C 300.722656 259.5625 301.195312 259.882812 301.710938 260.097656 C 302.238281 260.3125 302.792969 260.425781 303.359375 260.425781 C 303.921875 260.425781 304.476562 260.3125 305.003906 260.097656 C 305.519531 259.882812 305.992188 259.5625 306.398438 259.164062 L 319.273438 246.289062 C 320.082031 245.480469 320.53125 244.386719 320.53125 243.25 C 320.53125 242.109375 320.082031 241.023438 319.273438 240.214844 C 318.472656 239.410156 317.378906 238.957031 316.238281 238.957031 C 315.101562 238.957031 314.007812 239.410156 313.207031 240.214844 " fill-opacity="1" fill-rule="nonzero"/></g><g clip-path="url(#id2)"><path fill="#100f0d" d="M 246.289062 287.441406 C 245.480469 286.640625 244.386719 286.183594 243.25 286.183594 C 242.109375 286.183594 241.023438 286.640625 240.214844 287.441406 C 239.410156 288.25 238.957031 289.34375 238.957031 290.480469 C 238.957031 291.617188 239.410156 292.707031 240.214844 293.515625 L 245.765625 299.066406 L 68.996094 299.066406 L 74.546875 293.515625 C 75.355469 292.707031 75.800781 291.617188 75.800781 290.480469 C 75.800781 289.34375 75.355469 288.25 74.546875 287.441406 C 73.742188 286.640625 72.652344 286.183594 71.507812 286.183594 C 70.371094 286.183594 69.28125 286.640625 68.472656 287.441406 L 55.59375 300.324219 C 55.199219 300.722656 54.882812 301.195312 54.660156 301.710938 C 54.445312 302.238281 54.339844 302.792969 54.339844 303.359375 C 54.339844 303.921875 54.445312 304.476562 54.660156 305.003906 C 54.882812 305.519531 55.199219 305.992188 55.59375 306.398438 L 68.472656 319.273438 C 68.875 319.671875 69.347656 319.988281 69.867188 320.207031 C 70.390625 320.421875 70.945312 320.53125 71.507812 320.53125 C 72.078125 320.53125 72.632812 320.421875 73.148438 320.207031 C 73.675781 319.988281 74.148438 319.671875 74.546875 319.273438 C 74.945312 318.875 75.257812 318.402344 75.472656 317.882812 C 75.695312 317.359375 75.800781 316.804688 75.800781 316.238281 C 75.800781 315.675781 75.695312 315.117188 75.472656 314.59375 C 75.257812 314.078125 74.945312 313.601562 74.546875 313.199219 L 68.996094 307.65625 L 245.765625 307.65625 L 240.214844 313.199219 C 239.410156 314.007812 238.957031 315.101562 238.957031 316.238281 C 238.957031 317.378906 239.410156 318.472656 240.214844 319.273438 C 241.023438 320.082031 242.109375 320.53125 243.25 320.53125 C 244.386719 320.53125 245.480469 320.082031 246.289062 319.273438 L 259.164062 306.398438 C 259.5625 305.992188 259.882812 305.519531 260.097656 305.003906 C 260.3125 304.476562 260.425781 303.921875 260.425781 303.359375 C 260.425781 302.792969 260.3125 302.238281 260.097656 301.710938 C 259.882812 301.195312 259.5625 300.722656 259.164062 300.324219 L 246.289062 287.441406 " fill-opacity="1" fill-rule="nonzero"/></g><g clip-path="url(#id3)"><path fill="#100f0d" d="M 269.007812 269.007812 L 62.921875 269.007812 L 62.921875 62.925781 L 243.25 62.925781 L 243.25 84.390625 C 243.25 85.527344 243.707031 86.621094 244.507812 87.429688 C 245.316406 88.230469 246.402344 88.683594 247.542969 88.683594 L 269.007812 88.683594 Z M 251.839844 68.996094 L 262.941406 80.097656 L 251.839844 80.097656 Z M 299.066406 269.007812 L 277.597656 269.007812 L 277.597656 84.390625 C 277.597656 83.253906 277.148438 82.160156 276.339844 81.351562 L 250.582031 55.589844 C 249.773438 54.785156 248.679688 54.332031 247.542969 54.339844 L 58.632812 54.339844 C 57.488281 54.339844 56.398438 54.785156 55.59375 55.59375 C 54.785156 56.398438 54.339844 57.488281 54.339844 58.632812 L 54.339844 273.300781 C 54.339844 274.445312 54.785156 275.53125 55.59375 276.339844 C 56.398438 277.140625 57.488281 277.597656 58.632812 277.597656 L 269.007812 277.597656 L 269.007812 316.238281 C 269.007812 317.378906 269.464844 318.472656 270.265625 319.273438 C 271.074219 320.082031 272.164062 320.53125 273.300781 320.53125 C 274.445312 320.53125 275.53125 320.082031 276.339844 319.273438 C 277.140625 318.472656 277.597656 317.378906 277.597656 316.238281 L 277.597656 277.597656 L 299.066406 277.597656 C 300.203125 277.597656 301.296875 277.140625 302.105469 276.339844 C 302.90625 275.53125 303.359375 274.445312 303.359375 273.300781 C 303.359375 272.164062 302.90625 271.074219 302.105469 270.265625 C 301.296875 269.464844 300.203125 269.007812 299.066406 269.007812 " fill-opacity="1" fill-rule="nonzero"/></g><g clip-path="url(#id4)"><path fill="#100f0d" d="M 316.238281 269.007812 L 311.949219 269.007812 C 310.804688 269.007812 309.714844 269.464844 308.910156 270.265625 C 308.101562 271.074219 307.65625 272.164062 307.65625 273.300781 C 307.65625 274.445312 308.101562 275.53125 308.910156 276.339844 C 309.714844 277.140625 310.804688 277.597656 311.949219 277.597656 L 316.238281 277.597656 C 317.378906 277.597656 318.472656 277.140625 319.273438 276.339844 C 320.082031 275.53125 320.53125 274.445312 320.53125 273.300781 C 320.53125 272.164062 320.082031 271.074219 319.273438 270.265625 C 318.472656 269.464844 317.378906 269.007812 316.238281 269.007812 " fill-opacity="1" fill-rule="nonzero"/></g><path fill="#100f0d" d="M 97.273438 75.800781 L 140.207031 75.800781 C 141.34375 75.800781 142.4375 75.347656 143.242188 74.546875 C 144.046875 73.742188 144.5 72.652344 144.5 71.507812 C 144.5 70.371094 144.046875 69.28125 143.242188 68.472656 C 142.4375 67.667969 141.34375 67.214844 140.207031 67.214844 L 97.273438 67.214844 C 96.136719 67.214844 95.042969 67.667969 94.234375 68.472656 C 93.425781 69.28125 92.980469 70.371094 92.980469 71.507812 C 92.980469 72.652344 93.425781 73.742188 94.234375 74.546875 C 95.042969 75.347656 96.136719 75.800781 97.273438 75.800781 " fill-opacity="1" fill-rule="nonzero"/><path fill="#100f0d" d="M 97.273438 88.683594 L 127.324219 88.683594 C 128.46875 88.683594 129.558594 88.230469 130.363281 87.429688 C 131.171875 86.621094 131.617188 85.527344 131.617188 84.390625 C 131.617188 83.253906 131.171875 82.160156 130.363281 81.351562 C 129.558594 80.550781 128.46875 80.097656 127.324219 80.097656 L 97.273438 80.097656 C 96.136719 80.097656 95.042969 80.550781 94.234375 81.351562 C 93.425781 82.160156 92.980469 83.253906 92.980469 84.390625 C 92.980469 85.527344 93.425781 86.621094 94.234375 87.429688 C 95.042969 88.230469 96.136719 88.683594 97.273438 88.683594 " fill-opacity="1" fill-rule="nonzero"/><path fill="#100f0d" d="M 97.273438 101.566406 L 105.859375 101.566406 C 106.996094 101.566406 108.089844 101.113281 108.890625 100.308594 C 109.699219 99.5 110.15625 98.410156 110.15625 97.273438 C 110.15625 96.128906 109.699219 95.042969 108.890625 94.234375 C 108.089844 93.433594 106.996094 92.980469 105.859375 92.980469 L 97.273438 92.980469 C 96.136719 92.980469 95.042969 93.433594 94.234375 94.234375 C 93.425781 95.042969 92.980469 96.128906 92.980469 97.273438 C 92.980469 98.410156 93.425781 99.5 94.234375 100.308594 C 95.042969 101.113281 96.136719 101.566406 97.273438 101.566406 " fill-opacity="1" fill-rule="nonzero"/><path fill="#100f0d" d="M 75.800781 75.800781 L 80.097656 75.800781 L 80.097656 92.980469 L 75.800781 92.980469 Z M 84.390625 101.566406 C 85.527344 101.566406 86.621094 101.113281 87.429688 100.308594 C 88.230469 99.5 88.683594 98.410156 88.683594 97.273438 L 88.683594 71.507812 C 88.683594 70.371094 88.230469 69.28125 87.429688 68.472656 C 86.621094 67.667969 85.527344 67.214844 84.390625 67.214844 L 71.507812 67.214844 C 70.371094 67.214844 69.28125 67.667969 68.472656 68.472656 C 67.667969 69.28125 67.214844 70.371094 67.214844 71.507812 L 67.214844 97.273438 C 67.214844 98.410156 67.667969 99.5 68.472656 100.308594 C 69.28125 101.113281 70.371094 101.566406 71.507812 101.566406 L 84.390625 101.566406 " fill-opacity="1" fill-rule="nonzero"/><path fill="#100f0d" d="M 201.195312 77.597656 L 201.195312 99.640625 L 185.609375 115.226562 C 182.894531 111.214844 181.417969 106.410156 181.421875 101.566406 C 181.429688 95.699219 183.542969 90.023438 187.390625 85.589844 C 190.972656 81.453125 195.839844 78.644531 201.195312 77.597656 Z M 210.484375 96.917969 L 210.484375 77.597656 C 215.226562 78.53125 219.671875 80.886719 223.09375 84.316406 C 226.515625 87.730469 228.871094 92.175781 229.804688 96.917969 Z M 229.804688 106.207031 C 228.757812 111.5625 225.949219 116.425781 221.8125 120.011719 C 217.371094 123.851562 211.703125 125.972656 205.8125 125.980469 C 200.972656 125.980469 196.175781 124.5 192.175781 121.792969 L 207.753906 106.207031 Z M 229.65625 77.742188 C 223.296875 71.382812 214.835938 67.871094 205.835938 67.863281 C 199.148438 67.863281 192.675781 69.824219 187.113281 73.542969 C 181.550781 77.261719 177.261719 82.488281 174.699219 88.664062 C 172.140625 94.847656 171.476562 101.578125 172.777344 108.140625 C 174.085938 114.703125 177.273438 120.667969 182.003906 125.398438 C 186.734375 130.121094 192.699219 133.316406 199.261719 134.617188 C 201.421875 135.054688 203.632812 135.269531 205.835938 135.269531 C 210.289062 135.269531 214.625 134.402344 218.730469 132.703125 C 224.914062 130.148438 230.140625 125.851562 233.859375 120.289062 C 237.578125 114.726562 239.542969 108.253906 239.542969 101.566406 C 239.53125 92.566406 236.019531 84.105469 229.65625 77.742188 " fill-opacity="1" fill-rule="nonzero"/></svg>