<svg xmlns="http://www.w3.org/2000/svg" xmlns:xlink="http://www.w3.org/1999/xlink" width="500" zoomAndPan="magnify" viewBox="0 0 375 374.999991" height="500" preserveAspectRatio="xMidYMid meet" version="1.0"><defs><clipPath id="id1"><path d="M 48.207031 37.5 L 249 37.5 L 249 318 L 48.207031 318 Z M 48.207031 37.5 " clip-rule="nonzero"/></clipPath><clipPath id="id2"><path d="M 159 67 L 337.707031 67 L 337.707031 246 L 159 246 Z M 159 67 " clip-rule="nonzero"/></clipPath></defs><rect x="-37.5" width="450" fill="#ffffff" y="-37.499999" height="449.999989" fill-opacity="1"/><rect x="-37.5" width="450" fill="#ffffff" y="-37.499999" height="449.999989" fill-opacity="1"/><rect x="-37.5" width="450" fill="#ffffff" y="-37.499999" height="449.999989" fill-opacity="1"/><g clip-path="url(#id1)"><path fill="#100f0d" d="M 248.347656 60.261719 L 248.617188 60.261719 L 248.617188 56.148438 C 248.617188 45.886719 240.257812 37.542969 230.011719 37.542969 L 67.054688 37.542969 C 56.804688 37.542969 48.449219 45.886719 48.449219 56.148438 L 48.449219 299.351562 C 48.449219 309.613281 56.804688 317.957031 67.054688 317.957031 L 230.011719 317.957031 C 240.257812 317.957031 248.617188 309.613281 248.617188 299.351562 L 248.617188 253.664062 L 248.347656 253.664062 C 245.429688 253.664062 242.554688 253.53125 239.703125 253.285156 L 239.703125 299.351562 C 239.703125 304.71875 235.359375 309.054688 230.011719 309.054688 L 67.054688 309.054688 C 61.707031 309.054688 57.363281 304.71875 57.363281 299.351562 L 57.363281 56.148438 C 57.363281 50.78125 61.707031 46.445312 67.054688 46.445312 L 230.011719 46.445312 C 235.359375 46.445312 239.703125 50.78125 239.703125 56.148438 L 239.703125 60.640625 C 242.554688 60.398438 245.429688 60.261719 248.347656 60.261719 " fill-opacity="1" fill-rule="nonzero"/></g><path fill="#100f0d" d="M 190.976562 79.117188 C 195.566406 75.734375 200.445312 72.75 205.609375 70.210938 L 70.222656 70.210938 L 70.222656 111.917969 L 162.699219 111.917969 C 164.328125 108.84375 166.109375 105.886719 168.027344 103.015625 L 79.128906 103.015625 L 79.128906 79.117188 L 190.976562 79.117188 " fill-opacity="1" fill-rule="nonzero"/><path fill="#100f0d" d="M 155.0625 131.101562 C 155.90625 128.078125 156.890625 125.09375 158.023438 122.199219 L 70.222656 122.199219 L 70.222656 142.992188 L 152.546875 142.992188 C 152.988281 139.980469 153.566406 137.003906 154.285156 134.082031 L 79.128906 134.082031 L 79.128906 131.101562 L 155.0625 131.101562 " fill-opacity="1" fill-rule="nonzero"/><path fill="#100f0d" d="M 93.9375 184.339844 L 112.484375 184.339844 L 112.484375 165.808594 L 93.9375 165.808594 Z M 121.398438 193.234375 L 85.027344 193.234375 L 85.027344 156.902344 L 121.398438 156.902344 L 121.398438 193.234375 " fill-opacity="1" fill-rule="nonzero"/><path fill="#100f0d" d="M 155.503906 184.339844 L 139.304688 184.339844 L 139.304688 165.800781 L 151.945312 165.800781 C 151.675781 162.886719 151.539062 159.941406 151.539062 156.964844 L 151.539062 156.898438 L 130.398438 156.898438 L 130.398438 193.242188 L 158.621094 193.242188 C 157.421875 190.347656 156.375 187.363281 155.503906 184.339844 " fill-opacity="1" fill-rule="nonzero"/><path fill="#100f0d" d="M 93.9375 230.414062 L 112.484375 230.414062 L 112.484375 211.882812 L 93.9375 211.882812 Z M 121.398438 239.308594 L 85.027344 239.308594 L 85.027344 202.980469 L 121.398438 202.980469 L 121.398438 239.308594 " fill-opacity="1" fill-rule="nonzero"/><path fill="#100f0d" d="M 157.871094 230.40625 L 139.304688 230.40625 L 139.304688 211.890625 L 157.871094 211.890625 Z M 163.21875 202.984375 L 130.398438 202.984375 L 130.398438 239.308594 L 166.777344 239.308594 L 166.777344 208.996094 C 165.535156 207.039062 164.347656 205.039062 163.21875 202.984375 " fill-opacity="1" fill-rule="nonzero"/><path fill="#100f0d" d="M 185.453125 230.40625 L 184.695312 230.40625 L 184.695312 229.757812 C 181.527344 227 178.566406 224.039062 175.78125 220.902344 L 175.78125 239.308594 L 197.65625 239.308594 C 193.359375 236.664062 189.261719 233.679688 185.453125 230.40625 " fill-opacity="1" fill-rule="nonzero"/><path fill="#100f0d" d="M 93.9375 276.378906 L 112.484375 276.378906 L 112.484375 257.847656 L 93.9375 257.847656 Z M 121.398438 285.28125 L 85.027344 285.28125 L 85.027344 248.941406 L 121.398438 248.941406 L 121.398438 285.28125 " fill-opacity="1" fill-rule="nonzero"/><path fill="#100f0d" d="M 139.3125 276.378906 L 157.863281 276.378906 L 157.863281 257.847656 L 139.3125 257.847656 Z M 166.769531 285.28125 L 130.398438 285.28125 L 130.398438 248.941406 L 166.769531 248.941406 L 166.769531 285.28125 " fill-opacity="1" fill-rule="nonzero"/><path fill="#100f0d" d="M 184.6875 276.378906 L 203.238281 276.378906 L 203.238281 257.847656 L 184.6875 257.847656 Z M 212.144531 285.28125 L 175.773438 285.28125 L 175.773438 248.941406 L 212.144531 248.941406 L 212.144531 285.28125 " fill-opacity="1" fill-rule="nonzero"/><path fill="#100f0d" d="M 230.8125 252.058594 L 230.8125 282.550781 C 230.8125 292.792969 222.457031 301.136719 212.183594 301.136719 L 165.535156 301.136719 L 165.535156 292.234375 L 212.183594 292.234375 C 217.558594 292.234375 221.898438 287.890625 221.898438 282.550781 L 221.898438 249.992188 C 224.816406 250.816406 227.785156 251.527344 230.8125 252.058594 " fill-opacity="1" fill-rule="nonzero"/><path fill="#100f0d" d="M 279.902344 90.871094 C 276.46875 90.871094 273.660156 88.066406 273.660156 84.644531 C 273.660156 81.195312 276.46875 78.414062 279.902344 78.414062 C 283.355469 78.414062 286.140625 81.195312 286.140625 84.644531 C 286.140625 88.066406 283.355469 90.871094 279.902344 90.871094 Z M 279.902344 68.621094 C 271.058594 68.621094 263.859375 75.808594 263.859375 84.644531 C 263.859375 93.476562 271.058594 100.664062 279.902344 100.664062 C 288.75 100.664062 295.945312 93.476562 295.945312 84.644531 C 295.945312 75.808594 288.75 68.621094 279.902344 68.621094 " fill-opacity="1" fill-rule="nonzero"/><path fill="#100f0d" d="M 320.765625 131.667969 C 317.308594 131.667969 314.523438 128.863281 314.523438 125.4375 C 314.523438 122.007812 317.308594 119.210938 320.765625 119.210938 C 324.195312 119.210938 327.003906 122.007812 327.003906 125.4375 C 327.003906 128.863281 324.195312 131.667969 320.765625 131.667969 Z M 320.765625 109.417969 C 311.914062 109.417969 304.71875 116.605469 304.71875 125.4375 C 304.71875 134.273438 311.914062 141.460938 320.765625 141.460938 C 329.609375 141.460938 336.804688 134.273438 336.804688 125.4375 C 336.804688 116.605469 329.609375 109.417969 320.765625 109.417969 " fill-opacity="1" fill-rule="nonzero"/><g clip-path="url(#id2)"><path fill="#100f0d" d="M 248.347656 237.089844 C 204.121094 237.089844 168.136719 201.144531 168.136719 156.964844 C 168.136719 115.796875 199.386719 81.78125 239.4375 77.339844 L 239.4375 165.871094 L 328.066406 165.871094 C 323.617188 205.871094 289.5625 237.089844 248.347656 237.089844 Z M 248.34375 156.964844 L 248.34375 67.945312 C 199.125 67.945312 159.222656 107.804688 159.222656 156.964844 C 159.222656 206.128906 199.125 245.988281 248.34375 245.988281 C 297.566406 245.988281 337.46875 206.128906 337.46875 156.964844 L 248.34375 156.964844 " fill-opacity="1" fill-rule="nonzero"/></g><path fill="#100f0d" d="M 336.515625 75.808594 L 271.082031 141.191406 L 264.148438 134.253906 L 329.582031 68.882812 L 336.515625 75.808594 " fill-opacity="1" fill-rule="nonzero"/></svg>